<svg width="336" height="90" viewBox="0 0 336 90" fill="none" xmlns="http://www.w3.org/2000/svg">
<g filter="url(#filter0_d)">
<rect x="5" y="1" width="326" height="80" rx="8" fill="#EC2327"/>
<path d="M49.624 45.912V51.672H47.392V48H33.568L33.544 51.672H31.312L31.336 45.912H32.152C33.208 45.848 33.952 45.016 34.384 43.416C34.816 41.8 35.08 39.528 35.176 36.6L35.344 31.2H47.152V45.912H49.624ZM37.288 36.816C37.208 39.184 37.016 41.144 36.712 42.696C36.424 44.248 35.952 45.32 35.296 45.912H44.776V33.288H37.408L37.288 36.816ZM52.5211 35.28H54.8251V44.544L62.6251 35.28H64.7131V48H62.4091V38.736L54.6331 48H52.5211V35.28ZM77.8491 41.4C79.4971 41.816 80.3211 42.848 80.3211 44.496C80.3211 45.616 79.8971 46.48 79.0491 47.088C78.2171 47.696 76.9691 48 75.3051 48H69.1851V35.28H75.0891C76.5931 35.28 77.7691 35.568 78.6171 36.144C79.4651 36.704 79.8891 37.504 79.8891 38.544C79.8891 39.216 79.7051 39.8 79.3371 40.296C78.9851 40.776 78.4891 41.144 77.8491 41.4ZM71.4411 40.752H74.8971C75.7771 40.752 76.4411 40.592 76.8891 40.272C77.3531 39.952 77.5851 39.488 77.5851 38.88C77.5851 37.664 76.6891 37.056 74.8971 37.056H71.4411V40.752ZM75.1371 46.224C76.0971 46.224 76.8171 46.072 77.2971 45.768C77.7771 45.464 78.0171 44.992 78.0171 44.352C78.0171 43.696 77.7931 43.208 77.3451 42.888C76.9131 42.568 76.2251 42.408 75.2811 42.408H71.4411V46.224H75.1371ZM83.9273 35.28H86.2313V44.544L94.0313 35.28H96.1193V48H93.8153V38.736L86.0393 48H83.9273V35.28ZM110.071 37.296H105.415V48H103.111V37.296H98.4554V35.28H110.071V37.296ZM112.427 35.28H114.731V44.544L122.531 35.28H124.619V48H122.315V38.736L114.539 48H112.427V35.28ZM134.635 48.144C133.339 48.144 132.179 47.864 131.155 47.304C130.147 46.744 129.355 45.976 128.779 45C128.203 44.008 127.915 42.888 127.915 41.64C127.915 40.392 128.203 39.28 128.779 38.304C129.355 37.312 130.147 36.544 131.155 36C132.179 35.44 133.339 35.16 134.635 35.16C135.787 35.16 136.811 35.392 137.707 35.856C138.619 36.32 139.323 36.992 139.819 37.872L138.067 39C137.667 38.392 137.171 37.936 136.579 37.632C135.987 37.328 135.331 37.176 134.611 37.176C133.779 37.176 133.027 37.36 132.355 37.728C131.699 38.096 131.179 38.624 130.795 39.312C130.427 39.984 130.243 40.76 130.243 41.64C130.243 42.536 130.427 43.328 130.795 44.016C131.179 44.688 131.699 45.208 132.355 45.576C133.027 45.944 133.779 46.128 134.611 46.128C135.331 46.128 135.987 45.976 136.579 45.672C137.171 45.368 137.667 44.912 138.067 44.304L139.819 45.408C139.323 46.288 138.619 46.968 137.707 47.448C136.811 47.912 135.787 48.144 134.635 48.144ZM148.682 39.6C150.298 39.616 151.53 39.984 152.378 40.704C153.226 41.424 153.65 42.44 153.65 43.752C153.65 45.128 153.186 46.192 152.258 46.944C151.346 47.68 150.034 48.04 148.322 48.024L142.802 48V35.28H145.106V39.576L148.682 39.6ZM148.13 46.272C149.17 46.288 149.954 46.08 150.482 45.648C151.026 45.216 151.298 44.576 151.298 43.728C151.298 42.896 151.034 42.288 150.506 41.904C149.994 41.52 149.202 41.32 148.13 41.304L145.106 41.256V46.248L148.13 46.272ZM168.596 48.144C167.3 48.144 166.14 47.864 165.116 47.304C164.108 46.744 163.316 45.976 162.74 45C162.164 44.008 161.876 42.888 161.876 41.64C161.876 40.392 162.164 39.28 162.74 38.304C163.316 37.312 164.108 36.544 165.116 36C166.14 35.44 167.3 35.16 168.596 35.16C169.748 35.16 170.772 35.392 171.668 35.856C172.58 36.32 173.284 36.992 173.78 37.872L172.028 39C171.628 38.392 171.132 37.936 170.54 37.632C169.948 37.328 169.292 37.176 168.572 37.176C167.74 37.176 166.988 37.36 166.316 37.728C165.66 38.096 165.14 38.624 164.756 39.312C164.388 39.984 164.204 40.76 164.204 41.64C164.204 42.536 164.388 43.328 164.756 44.016C165.14 44.688 165.66 45.208 166.316 45.576C166.988 45.944 167.74 46.128 168.572 46.128C169.292 46.128 169.948 45.976 170.54 45.672C171.132 45.368 171.628 44.912 172.028 44.304L173.78 45.408C173.284 46.288 172.58 46.968 171.668 47.448C170.772 47.912 169.748 48.144 168.596 48.144ZM191.427 35.28V48H189.339V38.712L184.587 46.56H183.579L178.875 38.688V48H176.763V35.28H179.139L184.131 43.872L189.267 35.28H191.427ZM200.448 35.16C202.208 35.16 203.552 35.592 204.48 36.456C205.424 37.32 205.896 38.608 205.896 40.32V48H203.712V46.32C203.328 46.912 202.776 47.368 202.056 47.688C201.352 47.992 200.512 48.144 199.536 48.144C198.112 48.144 196.968 47.8 196.104 47.112C195.256 46.424 194.832 45.52 194.832 44.4C194.832 43.28 195.24 42.384 196.056 41.712C196.872 41.024 198.168 40.68 199.944 40.68H203.592V40.224C203.592 39.232 203.304 38.472 202.728 37.944C202.152 37.416 201.304 37.152 200.184 37.152C199.432 37.152 198.696 37.28 197.976 37.536C197.256 37.776 196.648 38.104 196.152 38.52L195.192 36.792C195.848 36.264 196.632 35.864 197.544 35.592C198.456 35.304 199.424 35.16 200.448 35.16ZM199.92 46.368C200.8 46.368 201.56 46.176 202.2 45.792C202.84 45.392 203.304 44.832 203.592 44.112V42.336H200.04C198.088 42.336 197.112 42.992 197.112 44.304C197.112 44.944 197.36 45.448 197.856 45.816C198.352 46.184 199.04 46.368 199.92 46.368ZM214.989 42.624H212.349V48H210.045V35.28H212.349V40.656H215.037L219.165 35.28H221.637L216.813 41.4L221.973 48H219.261L214.989 42.624ZM229.414 48.144C228.15 48.144 227.014 47.864 226.006 47.304C224.998 46.744 224.206 45.976 223.63 45C223.07 44.008 222.79 42.888 222.79 41.64C222.79 40.392 223.07 39.28 223.63 38.304C224.206 37.312 224.998 36.544 226.006 36C227.014 35.44 228.15 35.16 229.414 35.16C230.678 35.16 231.806 35.44 232.798 36C233.806 36.544 234.59 37.312 235.15 38.304C235.726 39.28 236.014 40.392 236.014 41.64C236.014 42.888 235.726 44.008 235.15 45C234.59 45.976 233.806 46.744 232.798 47.304C231.806 47.864 230.678 48.144 229.414 48.144ZM229.414 46.128C230.23 46.128 230.958 45.944 231.598 45.576C232.254 45.192 232.766 44.664 233.134 43.992C233.502 43.304 233.686 42.52 233.686 41.64C233.686 40.76 233.502 39.984 233.134 39.312C232.766 38.624 232.254 38.096 231.598 37.728C230.958 37.36 230.23 37.176 229.414 37.176C228.598 37.176 227.862 37.36 227.206 37.728C226.566 38.096 226.054 38.624 225.67 39.312C225.302 39.984 225.118 40.76 225.118 41.64C225.118 42.52 225.302 43.304 225.67 43.992C226.054 44.664 226.566 45.192 227.206 45.576C227.862 45.944 228.598 46.128 229.414 46.128ZM250.168 35.28V48H247.864V37.296H242.392L242.248 40.128C242.168 41.84 242.016 43.272 241.792 44.424C241.568 45.56 241.2 46.472 240.688 47.16C240.176 47.848 239.464 48.192 238.552 48.192C238.136 48.192 237.664 48.12 237.136 47.976L237.28 46.032C237.488 46.08 237.68 46.104 237.856 46.104C238.496 46.104 238.976 45.824 239.296 45.264C239.616 44.704 239.824 44.04 239.92 43.272C240.016 42.504 240.104 41.408 240.184 39.984L240.4 35.28H250.168ZM254.623 35.28H256.927V44.544L264.727 35.28H266.815V48H264.511V38.736L256.735 48H254.623V35.28ZM276.231 42.624H273.591V48H271.287V35.28H273.591V40.656H276.279L280.407 35.28H282.879L278.055 41.4L283.215 48H280.503L276.231 42.624ZM285.63 35.28H287.934V44.544L295.734 35.28H297.822V48H295.518V38.736L287.742 48H285.63V35.28Z" fill="white"/>
</g>
<defs>
<filter id="filter0_d" x="0" y="0" width="336" height="90" filterUnits="userSpaceOnUse" color-interpolation-filters="sRGB">
<feFlood flood-opacity="0" result="BackgroundImageFix"/>
<feColorMatrix in="SourceAlpha" type="matrix" values="0 0 0 0 0 0 0 0 0 0 0 0 0 0 0 0 0 0 127 0"/>
<feOffset dy="4"/>
<feGaussianBlur stdDeviation="2.5"/>
<feColorMatrix type="matrix" values="0 0 0 0 0 0 0 0 0 0 0 0 0 0 0 0 0 0 0.26 0"/>
<feBlend mode="normal" in2="BackgroundImageFix" result="effect1_dropShadow"/>
<feBlend mode="normal" in="SourceGraphic" in2="effect1_dropShadow" result="shape"/>
</filter>
</defs>
</svg>
