<svg width="667" height="222" viewBox="0 0 667 222" fill="none" xmlns="http://www.w3.org/2000/svg">
<path d="M112.737 154.874C103.534 154.874 94.9883 152.79 87.4287 148.731C79.3213 144.344 73.4051 138.092 69.68 129.975C68.0366 126.465 66.7219 122.626 65.8454 118.678C65.0785 114.839 64.6403 110.781 64.6403 106.613C64.6403 101.348 65.2976 96.083 66.6124 90.9279C66.8315 89.831 67.1602 88.7342 67.4888 87.6374C65.8454 87.3083 64.3116 86.9793 62.6682 86.6502C56.752 85.334 50.8357 83.4694 45.1386 81.166C39.332 78.8627 33.7444 75.9012 28.376 72.501C22.898 68.9911 17.8582 64.7134 13.2567 59.7777C9.20302 55.0613 6.13535 50.3449 3.83459 45.2994C1.31472 39.8152 0 34.6601 0 29.834C0 21.9368 2.95811 15.0267 8.4361 9.98123C11.3942 7.34881 14.5715 5.37451 18.0774 4.27767C21.2546 3.18083 24.7605 2.63241 28.2664 2.63241C33.3062 2.63241 38.3459 3.72925 43.3857 5.81324C48.3159 7.89723 52.6983 10.6393 56.5329 14.1492C60.477 17.6591 63.6542 21.8271 66.0646 26.4338C68.8036 31.5889 70.0087 36.9634 69.8991 42.667C69.8991 42.8864 69.8991 43.1057 69.8991 43.3251C69.5705 46.6156 68.3653 49.4674 66.2837 51.7708C65.5168 52.6482 64.6403 53.3063 63.6542 53.9644C64.6403 54.2935 65.6263 54.7322 66.6124 55.0613C71.6521 56.8162 76.6919 58.1324 81.4029 58.9002C87.2096 50.6739 94.4405 42.7767 102.986 35.3182C108.683 30.3824 114.709 25.7757 120.735 21.498C127.089 17.001 133.553 13.1621 140.017 9.98123C147.358 6.47134 154.041 3.94862 160.067 2.41304C166.421 0.767787 171.899 0 176.83 0C185.594 0 192.606 2.19368 197.646 6.36166C197.975 6.69071 198.303 7.01976 198.632 7.34881C203.672 11.8458 206.301 17.8785 206.301 24.8982C206.301 29.5049 204.986 34.4407 202.357 39.3765C199.837 44.0929 196.002 48.6996 190.524 53.6354C185.704 58.0227 180.007 62.3004 173.652 66.249C167.517 70.088 160.834 73.4881 153.932 76.4496C147.139 79.4111 139.908 81.9338 132.567 84.0178C127.199 85.5534 121.83 86.7599 116.462 87.747C116.133 88.9536 115.914 90.0504 115.695 91.2569C115.147 94.2184 114.819 97.1798 114.819 100.032C114.819 102.774 115.147 105.406 115.695 107.929C116.462 111.877 117.777 113.194 118.763 113.852C120.735 115.278 123.145 115.936 125.994 115.936C130.705 115.936 135.964 114.291 141.661 111C147.467 107.6 152.617 102.335 157.109 95.3152C157.437 94.7668 157.876 94.2184 158.423 93.67C160.067 91.586 162.696 88.9536 166.75 88.1858C167.626 88.0761 168.393 87.9664 169.27 87.9664C172.885 87.9664 176.172 89.502 178.582 92.2441C180.445 94.3281 181.65 96.9605 182.088 99.9219C182.636 103.212 182.198 106.284 180.883 108.916C180.774 109.026 180.774 109.245 180.664 109.355C176.391 116.923 171.571 123.614 166.202 129.317C160.943 134.911 155.246 139.737 149.549 143.466C143.633 147.305 137.607 150.157 131.472 152.022C125.008 153.996 118.763 154.874 112.737 154.874ZM166.86 34.2213C162.696 35.9763 157.876 38.7184 152.398 42.2283C149.768 43.8735 147.358 45.6285 144.948 47.4931C148.125 46.0672 151.302 44.5316 154.37 42.7767C158.862 40.4733 163.025 37.5119 166.86 34.2213Z" fill="#2B3990"/>
<path d="M198.522 148.293C193.592 148.293 189.1 146.867 185.156 144.125C184.827 143.905 184.608 143.686 184.28 143.466C182.746 144.344 181.102 145.221 179.349 145.879C175.296 147.525 171.242 148.293 167.188 148.293C164.449 148.293 161.71 147.854 159.19 147.086C156.232 146.099 153.603 144.673 151.302 142.589C149.001 140.395 147.139 137.653 145.934 134.363C144.838 131.401 144.29 128.001 144.29 124.162C144.4 120.323 145.057 116.813 146.262 113.523C147.248 110.452 148.563 107.49 150.207 104.638C151.631 102.006 153.274 99.3735 154.918 96.7411C156.561 94.2184 158.204 91.915 159.738 89.7214C160.834 88.1858 161.82 86.7599 162.806 85.4437C163.573 84.3468 164.23 83.3597 164.668 82.4822C165.435 81.0563 166.531 79.9595 167.846 79.082L169.708 77.8755C171.132 76.8883 172.776 76.3399 174.529 76.2302C176.282 76.1206 178.363 76.0109 180.774 76.0109C183.074 76.0109 186.252 75.9012 190.525 75.9012C193.921 75.9012 196.989 77.6561 198.741 80.3982C200.385 78.0949 203.014 76.5593 205.863 76.3399C208.602 76.1206 211.122 76.0109 213.642 75.9012C215.942 75.9012 219.12 75.7915 223.173 75.7915C226.679 75.7915 229.856 77.6561 231.609 80.6176C233.253 83.4694 233.362 87.0889 231.829 90.0504C233.253 90.3795 234.677 91.0376 236.101 91.8053C238.512 93.2312 240.484 95.3152 241.798 97.7283C243.771 101.567 243.771 105.845 241.689 109.464C238.731 115.058 235.444 120.543 232.157 125.369C228.87 130.085 225.145 134.582 220.873 138.64C220.653 138.969 220.434 139.189 220.106 139.518C217.586 142.041 214.409 144.234 210.684 145.879C206.52 147.415 202.576 148.293 198.522 148.293Z" fill="#2B3990"/>
<path d="M250.235 148.292C247.386 148.292 244.647 147.854 242.018 147.086C238.95 146.208 236.211 144.673 233.801 142.699C231.281 140.505 229.309 137.763 227.994 134.582C226.679 131.511 226.131 128.111 226.131 124.052C226.241 121.31 226.57 118.897 227.227 116.594C225.693 116.265 224.159 115.716 222.735 114.949C220.434 113.632 218.572 111.768 217.148 109.464C215.175 106.064 214.847 101.896 216.381 98.167C216.819 96.9605 217.586 95.4249 218.791 93.4506C219.01 93.1215 219.229 92.7925 219.448 92.4634C219.12 90.9279 219.01 89.3923 219.01 87.747C219.01 85.1146 219.339 82.2628 219.996 79.4111C220.544 76.669 221.311 74.1462 222.187 71.8429C222.626 70.417 223.721 68.4427 225.255 66.0296C226.898 63.5069 228.87 61.4229 231.062 59.668C234.02 57.3646 237.307 56.0484 240.922 55.829C241.141 55.829 241.579 55.829 241.798 55.829C244.318 55.829 248.92 56.5968 252.974 61.6423C253.412 62.081 253.85 62.6294 254.179 63.1779C256.37 66.578 257.356 70.5267 257.137 74.914C257.137 74.914 261.519 74.8043 261.629 74.8043C263.272 74.8043 264.696 74.8043 266.121 74.914C268.531 75.0237 270.832 75.4624 272.804 76.2302C275.324 77.2174 277.515 78.753 279.268 80.7273C280.802 82.4822 282.555 85.334 282.883 89.831C282.883 90.0504 282.883 90.2698 282.883 90.4891C282.883 90.7085 282.883 91.0375 282.883 91.2569C283.212 91.3666 283.541 91.4763 283.869 91.586C285.184 92.0247 286.499 92.5731 287.814 93.2312C289.238 93.999 290.553 94.8765 291.758 95.8636C295.483 98.9348 296.25 102.445 296.25 104.748C296.25 106.393 295.811 108.148 294.935 109.574C291.539 115.497 288.142 120.872 284.746 125.807C281.13 130.962 277.296 135.569 273.352 139.627C270.722 142.26 267.107 144.454 262.834 146.099C258.561 147.415 254.398 148.292 250.235 148.292Z" fill="#2B3990"/>
<path d="M303.809 148.292C300.961 148.292 298.222 147.854 295.592 147.086C292.525 146.208 289.786 144.673 287.375 142.699C284.855 140.505 282.883 137.763 281.569 134.582C280.254 131.511 279.706 128.111 279.706 124.052C279.816 121.31 280.144 118.897 280.802 116.594C279.268 116.265 277.734 115.716 276.31 114.949C274.009 113.632 272.147 111.768 270.722 109.464C268.75 106.064 268.421 101.896 269.955 98.167C270.394 96.9605 271.16 95.4249 272.366 93.4506C272.585 93.1215 272.804 92.7925 273.023 92.4634C272.694 90.9279 272.585 89.3923 272.585 87.747C272.585 85.1146 272.913 82.2628 273.571 79.4111C274.119 76.669 274.886 74.1462 275.762 71.8429C276.2 70.417 277.296 68.4427 278.83 66.0296C280.473 63.5069 282.445 61.4229 284.636 59.668C287.594 57.3646 290.881 56.0484 294.497 55.829C294.716 55.829 295.154 55.829 295.373 55.829C297.893 55.829 302.495 56.5968 306.548 61.6423C306.987 62.081 307.425 62.6294 307.753 63.1779C309.945 66.578 310.931 70.5267 310.712 74.914C310.712 74.914 315.094 74.8043 315.204 74.8043C316.847 74.8043 318.271 74.8043 319.695 74.914C322.106 75.0237 324.407 75.4624 326.379 76.2302C328.898 77.2174 331.09 78.753 332.843 80.7273C334.376 82.4822 336.129 85.334 336.458 89.831C336.458 90.0504 336.458 90.2698 336.458 90.4891C336.458 90.7085 336.458 91.0375 336.458 91.2569C336.787 91.3666 337.115 91.4763 337.444 91.586C338.759 92.0247 340.074 92.5731 341.388 93.2312C342.813 93.999 344.127 94.8765 345.332 95.8636C349.058 98.9348 349.824 102.445 349.824 104.748C349.824 106.393 349.386 108.148 348.51 109.574C345.113 115.497 341.717 120.872 338.321 125.807C334.705 130.962 330.871 135.569 326.926 139.627C324.297 142.26 320.681 144.454 316.409 146.099C312.245 147.415 307.973 148.292 303.809 148.292Z" fill="#2B3990"/>
<path d="M341.936 184.488C338.759 184.488 335.582 184.049 332.624 183.282C329.227 182.404 326.05 180.869 323.311 178.675C320.572 176.591 318.162 173.959 316.19 170.778C314.108 167.487 312.793 163.648 312.245 159.261C311.698 155.422 312.136 151.693 313.56 148.183C314.656 145.331 316.299 142.808 318.49 140.505C317.066 138.75 315.861 136.666 314.984 134.253C313.889 131.292 313.341 127.891 313.341 124.052C313.451 120.213 314.108 116.704 315.313 113.413C316.299 110.342 317.614 107.38 319.257 104.529C320.681 101.896 322.325 99.2638 323.968 96.6314C325.612 94.1087 327.255 91.8053 328.789 89.6117C329.885 88.0761 330.871 86.6502 331.857 85.334C332.624 84.2372 333.281 83.25 333.719 82.3725C334.486 80.9466 335.582 79.8498 336.896 78.9723L338.759 77.7658C340.183 76.7787 341.827 76.2302 343.58 76.1206C345.332 76.0109 347.414 75.9012 349.824 75.9012C352.125 75.9012 355.302 75.7915 359.575 75.7915C362.972 75.7915 366.149 77.5465 367.902 80.3982C368.011 80.1789 368.23 79.9595 368.34 79.8498C370.203 77.4368 373.051 76.1206 376.009 76.1206C376.447 76.1206 377.214 76.1206 378.31 76.0109C379.734 76.0109 381.159 75.9012 382.364 75.9012C382.911 75.9012 383.678 75.9012 384.664 75.7915C385.979 75.6818 387.184 75.6818 388.389 75.6818H393.101C396.826 75.6818 400.112 77.7658 401.756 81.0563C403.18 83.9081 403.071 87.1986 401.756 89.9407C403.071 90.2698 404.276 90.8182 405.481 91.586C407.562 92.9022 409.315 94.5474 410.63 96.7411C412.383 99.7026 412.931 103.212 412.164 106.503C411.945 107.49 411.507 108.368 411.068 109.135C408.987 112.536 406.576 116.265 403.947 120.433C400.989 125.04 397.812 128.878 394.744 131.84C392.114 134.253 389.376 136.556 386.308 138.421C384.774 139.408 383.35 140.286 381.816 141.163C380.501 145.879 378.967 150.486 377.214 155.093C374.804 161.564 371.298 167.707 367.025 173.52C364.177 177.249 360.452 179.991 355.741 181.965C351.03 183.611 346.538 184.488 341.936 184.488Z" fill="#2B3990"/>
<path d="M435.719 152.68C428.708 152.68 421.148 151.473 413.479 149.17C405.919 146.867 397.921 143.247 389.704 138.311C387.403 136.995 385.87 134.692 385.212 132.169C384.664 129.537 385.103 126.904 386.527 124.71L410.411 87.9664C412.054 85.334 414.903 83.6887 417.971 83.579C418.19 83.579 418.409 83.579 418.628 83.579C421.477 83.579 424.216 84.8952 426.078 87.0889C429.584 91.2569 432.871 94.1087 435.938 95.7539C438.787 97.2895 441.416 97.9476 444.046 97.9476C446.566 97.9476 449.414 97.3992 452.263 96.3024C455.55 95.0958 458.836 93.3409 462.233 91.1472C465.52 88.9535 468.806 86.4308 472.093 83.579C467.93 83.4694 463.767 82.8113 459.713 81.6047C454.892 80.1788 450.291 78.2045 446.128 75.6818C441.964 73.1591 438.239 70.3073 435.062 67.1265C431.666 63.6166 429.036 59.8873 427.502 55.9387C426.626 53.6354 426.188 51.6611 425.749 49.6868C425.421 47.7124 425.202 45.8478 425.202 44.0929C425.202 38.17 426.845 32.6858 429.913 27.8597C432.652 23.582 436.377 19.8528 440.869 16.6719C445.032 13.7105 449.962 11.0781 455.331 8.99406C460.37 7.01975 465.848 5.3745 471.326 4.05829C476.804 2.74208 482.501 1.75493 488.089 1.20651C493.676 0.658092 499.045 0.329041 504.194 0.329041C504.961 0.329041 505.947 0.329041 506.933 0.329041C512.192 0.329041 517.451 0.548408 522.71 1.09683C529.064 1.64525 535.309 2.74208 541.335 4.27766C547.47 5.81323 553.387 7.89722 558.974 10.5296C564.781 13.2717 570.149 16.6719 574.86 20.7302C578.038 23.4723 580.776 26.8725 583.187 30.8211C585.488 34.6601 587.131 38.499 588.227 42.3379C589.213 45.5188 589.651 48.5899 589.651 51.4417C589.651 57.4743 588.117 62.9585 584.94 67.6749C582.201 71.8429 578.695 75.5721 574.312 78.6433C570.368 81.495 565.986 83.7984 561.165 85.7727C559.412 86.5405 557.55 87.1986 555.797 87.747C555.687 89.6116 555.578 91.4763 555.249 93.3409C554.92 95.5346 554.482 97.3992 554.044 99.2638C553.934 99.4832 553.934 99.7026 553.825 99.9219L553.606 101.458C553.496 102.116 553.277 102.774 553.058 103.541C552.729 106.174 552.51 108.039 552.401 109.464C553.058 109.026 553.606 108.477 554.263 107.929C556.016 106.284 557.878 104.419 559.522 102.335C561.165 100.251 562.699 98.0573 563.904 95.7539C565.548 92.4634 569.054 90.2698 573.107 90.2698C574.641 90.2698 576.285 90.5988 577.928 91.3666C579.352 92.0247 580.776 92.7925 582.091 93.7796C583.625 94.8765 584.94 96.083 586.035 97.2895C590.089 102.116 589.322 107.709 586.802 111.11C586.693 111.329 586.474 111.548 586.364 111.658C586.145 111.877 585.597 112.536 584.611 114.071L581.543 118.897C579.79 121.639 577.928 124.272 576.065 127.014C573.984 129.866 571.683 132.717 569.054 135.35C566.424 137.982 563.576 140.505 560.398 142.699C557.112 145.112 553.387 147.086 549.333 148.731C546.375 149.828 543.417 150.706 540.458 151.254C537.61 151.802 534.652 152.022 531.803 152.022C526.764 152.022 521.943 151.254 517.56 149.609C513.069 147.963 509.124 145.77 505.838 142.918C502.332 139.847 499.593 136.337 497.84 132.388C496.744 129.756 495.977 127.124 495.868 124.272C494.224 125.917 492.581 127.453 490.937 128.988C484.473 134.801 477.352 139.737 469.792 143.795C461.904 148.073 453.139 150.815 444.046 152.131C442.95 152.351 441.307 152.57 439.554 152.57C438.458 152.57 437.034 152.68 435.719 152.68ZM545.936 43.5445C544.403 46.6156 542.759 49.9061 541.225 53.3063C540.458 54.9516 539.801 56.2678 539.253 57.584C538.925 58.3518 538.596 59.0099 538.267 59.7777C540.13 58.3518 541.773 56.7065 543.088 54.8419C545.17 51.9901 546.265 49.0286 546.265 45.8478C546.156 44.9703 546.046 44.2026 545.936 43.5445ZM488.198 37.6215C488.527 37.6215 489.294 37.6215 489.623 37.7312C492.143 37.9506 494.443 38.8281 496.635 40.2539C499.264 42.0089 501.236 44.5316 502.332 47.7124C503.975 45.2994 505.618 42.7767 507.152 40.2539C509.343 36.7441 511.535 33.1245 513.616 29.5049C510.768 29.2856 508.029 29.1759 505.509 29.1759C500.688 29.2856 495.868 29.834 491.157 30.9308C486.555 31.918 482.392 33.3439 478.886 35.0988C475.818 36.6344 473.298 38.3893 471.545 40.3636C470.34 41.6798 470.121 42.667 470.121 43.4348C470.121 44.0929 470.231 44.6413 470.45 45.1897C470.559 45.4091 470.998 45.9575 471.984 46.5059C472.86 47.0543 473.956 47.3834 475.27 47.3834C476.147 44.3122 478.119 41.6798 480.968 39.9249C483.049 38.2796 485.569 37.6215 488.198 37.6215Z" fill="#2B3990"/>
<path d="M617.15 149.17C609.591 149.17 603.127 145.66 598.963 139.408C598.744 139.079 598.525 138.86 598.416 138.531C597.101 139.737 595.896 140.834 594.69 141.711C594.362 142.041 594.033 142.37 593.704 142.699C591.842 144.125 589.432 145.441 586.035 146.757C582.529 148.073 578.914 148.731 575.079 148.731C570.04 148.731 565.438 147.305 561.275 144.454C556.235 141.053 553.277 135.24 552.62 127.343C552.181 121.201 553.277 114.839 555.906 108.258C558.317 101.896 561.823 96.083 566.205 90.8182C570.697 85.4437 576.175 81.0563 582.201 77.8755C587.46 75.1334 593.047 73.7075 598.744 73.7075C599.73 73.7075 600.716 73.7075 601.812 73.8172C602.798 71.5138 603.894 69.2105 604.989 66.9071C607.509 61.9714 610.358 57.3646 613.206 53.1967C616.164 48.919 619.451 45.08 622.738 41.7895C626.134 38.3893 629.64 35.6472 633.146 33.5633C637.2 31.2599 641.472 30.1631 646.184 30.1631C648.594 30.1631 651.004 30.4921 653.195 31.1502C655.715 31.918 657.907 33.0148 659.988 34.5504C662.508 36.415 664.261 38.9378 665.576 41.8992C666.781 44.751 667.109 48.0415 666.781 51.4417C666.014 58.0227 664.261 64.0553 661.522 69.4299C658.892 74.4753 655.825 78.9723 652.209 83.0306C650.128 85.4437 647.827 87.6374 645.526 89.7214C646.074 89.6117 646.622 89.6117 647.17 89.6117C647.389 89.6117 647.717 89.6117 647.937 89.6117C650.456 89.7213 652.757 90.4891 654.948 91.6957C657.14 93.0119 658.783 94.7668 660.098 96.8508C661.851 99.7026 662.398 103.212 661.632 106.503C661.412 107.49 661.084 108.477 660.536 109.245L656.263 116.484C656.044 116.813 655.825 117.142 655.606 117.471C653.524 120.981 651.333 124.491 649.142 127.891C646.512 131.84 643.335 135.569 639.72 138.86C639.391 139.298 638.953 139.627 638.514 140.066C631.283 146.099 624.052 149.17 617.15 149.17Z" fill="#2B3990"/>
<path d="M112.737 150.047C104.301 150.047 96.5222 148.183 89.7295 144.454C82.6081 140.615 77.3492 135.13 74.0624 128.001C72.5286 124.82 71.3234 121.31 70.666 117.691C69.8991 114.181 69.5704 110.452 69.5704 106.613C69.5704 101.787 70.2278 96.8508 71.3234 92.0247C71.9808 89.2826 72.8572 86.5405 73.8433 83.6887C70.4469 83.25 67.0506 82.5919 63.6542 81.8241C57.9571 80.5079 52.3696 78.753 46.8916 76.5593C41.4136 74.3656 36.0452 71.5138 31.0054 68.2233C25.8561 64.9328 21.0355 60.8745 16.7626 56.2678C13.1472 52.0998 10.2986 47.7125 8.21697 43.1057C6.02577 38.2796 4.93018 33.7826 4.93018 29.6146C4.93018 22.9239 7.23093 17.5494 11.8324 13.2717C14.2428 11.0781 16.8722 9.54249 19.7207 8.55534C22.4597 7.67787 25.3083 7.12945 28.376 7.12945C32.7584 7.12945 37.1408 8.1166 41.6327 9.87155C46.0151 11.7362 49.9592 14.1492 53.4652 17.33C56.9711 20.5109 59.8196 24.1304 62.0108 28.2984C64.3116 32.6858 65.4072 37.2925 65.2976 42.2283C65.0785 44.751 64.3116 46.6156 62.9969 48.0415C61.5726 49.5771 59.7101 50.5642 57.6284 50.6739C57.5189 50.6739 57.1902 50.6739 57.0806 50.6739C55.4372 50.6739 53.6843 50.1255 52.1504 49.1383C50.507 48.0415 49.0828 46.2866 48.0967 43.9832C47.0011 41.8992 45.4673 40.1443 43.6048 39.0474C41.6327 37.8409 39.8797 37.2925 38.4555 37.2925C37.7981 37.2925 37.3599 37.4022 37.1408 37.5119C37.0312 37.6215 37.0312 37.8409 36.9216 37.9506C36.8121 39.8152 37.9077 41.4605 38.6746 42.5573C40.318 44.751 42.5092 46.7253 45.0291 48.5899C51.0548 53.1966 57.8475 56.7065 65.2976 59.2293C71.7616 61.4229 78.0066 62.9585 83.9228 63.6166C89.7294 54.9516 97.1795 46.6156 106.273 38.6087C111.861 33.8923 117.667 29.2856 123.693 25.1176C129.828 20.8399 136.073 17.1107 142.318 14.0395C149.33 10.749 155.794 8.22629 161.491 6.8004C167.298 5.26483 172.557 4.49704 177.049 4.49704C184.608 4.49704 190.524 6.25198 194.688 9.76186C194.907 9.98123 195.126 10.2006 195.345 10.42C199.399 14.0395 201.59 18.8656 201.59 24.5692C201.59 28.4081 200.385 32.4664 198.194 36.8538C196.002 41.0217 192.497 45.2994 187.457 49.6868C182.746 53.9644 177.377 58.0227 171.351 61.752C165.326 65.4812 158.971 68.7717 152.288 71.6235C145.715 74.4753 138.703 76.8883 131.472 78.9723C125.336 80.7273 119.091 82.1532 112.847 83.0306C112.189 85.2243 111.532 87.5277 111.094 89.9407C110.436 93.2312 110.108 96.4121 110.108 99.7026C110.108 102.774 110.436 105.735 111.094 108.587C111.861 112.755 113.504 115.716 116.133 117.471C118.982 119.446 122.269 120.433 126.103 120.433C131.691 120.433 137.826 118.568 144.181 114.839C150.645 111.11 156.342 105.296 161.272 97.6186C161.491 97.1798 161.82 96.8508 162.148 96.6314C163.792 94.4377 165.654 93.1215 167.736 92.7925C168.284 92.6828 168.832 92.6828 169.27 92.6828C171.461 92.6828 173.433 93.5603 174.857 95.2055C176.063 96.6314 176.939 98.3864 177.268 100.58C177.596 102.774 177.377 104.858 176.501 106.613C172.338 114.071 167.626 120.433 162.587 125.807C157.547 131.182 152.288 135.679 146.81 139.189C141.332 142.699 135.635 145.441 129.938 147.196C124.022 149.17 118.215 150.047 112.737 150.047ZM178.911 25.9951C177.158 25.9951 173.652 26.4338 167.736 28.6275C162.806 30.4921 156.67 33.6729 149.659 38.17C143.195 42.3379 137.278 47.0544 132.02 52.4289C129.719 54.7322 127.528 57.2549 125.446 59.7777C128.842 58.7905 132.129 57.6937 135.306 56.5968C142.647 54.0741 149.768 50.8933 156.561 47.164C163.135 43.5445 169.16 39.0474 174.419 33.6729C174.638 33.4536 174.857 33.2342 175.077 33.1245C178.363 29.5049 179.568 27.3113 179.897 25.9951C179.788 25.9951 179.459 25.9951 178.911 25.9951Z" fill="#FEBC12"/>
<path d="M198.522 143.357C194.578 143.357 191.072 142.26 188.005 140.066C186.799 139.189 185.813 138.202 184.937 136.885C182.965 138.64 180.445 140.066 177.596 141.163C174.2 142.589 170.694 143.247 167.298 143.247C164.997 143.247 162.806 142.918 160.724 142.26C158.423 141.492 156.342 140.395 154.698 138.75C152.945 137.105 151.521 135.021 150.535 132.388C149.659 129.975 149.111 127.124 149.111 123.943C149.22 120.762 149.768 117.8 150.754 114.839C151.74 112.097 152.945 109.355 154.37 106.722C155.794 104.2 157.218 101.677 158.862 99.1542C160.505 96.7411 162.039 94.4378 163.573 92.2441C164.668 90.7085 165.764 89.2826 166.64 87.8567C167.517 86.5405 168.284 85.4437 168.832 84.4565C169.16 83.7984 169.708 83.1403 170.365 82.7016L172.228 81.4951C172.995 81.0563 173.762 80.7273 174.638 80.7273C176.391 80.6176 178.363 80.5079 180.664 80.5079C182.855 80.5079 186.142 80.3982 190.305 80.3982C192.058 80.3982 193.702 81.3854 194.578 82.8113C195.455 84.3468 195.455 86.2115 194.578 87.747C192.935 90.5988 191.51 93.1215 190.305 95.0959C189.21 97.1798 188.114 99.0445 187.238 100.799C186.361 102.554 185.485 104.309 184.718 106.174C184.17 107.49 183.513 108.916 182.965 110.452C183.951 109.684 184.937 108.806 185.923 107.929C186.909 106.942 187.785 105.845 188.552 104.748C189.867 102.554 191.291 100.361 192.716 98.3864C194.03 96.6314 195.236 94.8765 196.222 93.2312L199.508 88.1858C200.494 86.6502 201.48 85.005 202.466 83.3597C203.233 81.9338 204.658 80.9466 206.301 80.837C208.93 80.6176 211.45 80.5079 213.751 80.3982C216.052 80.3982 219.229 80.2885 223.173 80.2885C224.926 80.2885 226.46 81.166 227.337 82.7016C228.213 84.2372 228.213 85.9921 227.337 87.5277L222.078 96.8508C220.106 99.922 218.353 102.993 216.709 106.064C217.257 105.296 217.695 104.748 217.914 104.419C218.243 103.871 218.572 103.322 218.9 102.664L221.968 97.5089C223.611 95.2055 225.693 94.1087 228.213 94.1087C230.404 94.2184 232.048 94.7668 233.581 95.6443C235.225 96.6314 236.54 97.9476 237.416 99.5929C238.621 101.896 238.621 104.529 237.416 106.613C234.458 112.207 231.281 117.471 228.103 122.188C224.926 126.794 221.311 131.072 217.147 135.021C217.038 135.24 216.819 135.459 216.6 135.679C214.518 137.763 211.779 139.627 208.602 140.944C205.205 142.699 201.809 143.357 198.522 143.357Z" fill="#FEBC12"/>
<path d="M250.235 143.357C247.824 143.357 245.523 143.028 243.442 142.37C241.032 141.711 238.95 140.505 237.087 138.969C235.115 137.324 233.581 135.24 232.595 132.717C231.609 130.304 231.062 127.453 231.062 124.052C231.171 120.981 231.719 118.349 232.705 115.826C233.581 113.523 234.787 111.219 236.101 109.026C237.416 106.942 238.95 104.967 240.484 103.103C240.812 102.664 241.141 102.335 241.47 101.896H240.374C239.936 102.554 239.498 103.212 239.059 103.871C238.293 104.967 237.635 106.064 236.978 107.161C236.868 107.38 236.759 107.6 236.649 107.819C235.334 110.232 233.034 111.658 230.404 111.768C230.295 111.768 229.966 111.768 229.856 111.768C228.213 111.768 226.57 111.329 225.145 110.561C223.612 109.684 222.297 108.368 221.42 106.832C220.106 104.638 219.996 102.116 220.982 99.8123C221.311 98.8251 222.078 97.5089 223.064 95.8637C223.612 94.9862 224.159 93.999 224.817 93.1216C224.707 92.6828 224.488 92.1344 224.488 91.6957C224.269 90.3795 224.05 88.9536 224.05 87.5277C224.05 85.2243 224.378 82.8113 224.926 80.1789C225.474 77.6561 226.131 75.3528 226.898 73.2688C227.337 72.0623 228.103 70.5267 229.418 68.5524C230.733 66.4684 232.376 64.7135 234.129 63.2876C236.32 61.5326 238.731 60.6552 241.251 60.4358C241.36 60.4358 241.689 60.4358 241.798 60.4358C243.771 60.4358 246.729 61.2036 249.358 64.6038C249.687 64.8231 249.906 65.1522 250.125 65.4812C252.097 68.5524 252.754 72.2816 252.097 76.669C251.988 77.6561 251.768 78.6433 251.549 79.6305L261.629 79.4111C263.163 79.4111 264.587 79.4111 265.902 79.5208C267.764 79.6305 269.517 79.9595 271.051 80.5079C272.804 81.166 274.338 82.2629 275.652 83.6888C277.077 85.334 277.844 87.418 278.063 89.9407C278.063 92.4635 277.624 94.5474 276.529 96.4121C276.419 96.6314 276.31 96.8508 276.2 97.0702C277.296 96.083 278.501 95.6443 279.925 95.6443C280.692 95.6443 281.459 95.754 282.336 96.083C283.322 96.4121 284.417 96.8508 285.513 97.5089C286.608 98.167 287.704 98.8251 288.69 99.5929C290.443 101.128 291.429 102.883 291.429 104.748C291.429 105.626 291.21 106.393 290.772 107.161C287.485 112.865 284.089 118.239 280.802 123.065C277.405 128.001 273.68 132.388 269.955 136.227C267.764 138.421 264.806 140.286 261.191 141.602C257.465 142.699 253.74 143.357 250.235 143.357Z" fill="#FEBC12"/>
<path d="M303.809 143.357C301.399 143.357 299.098 143.028 297.017 142.37C294.606 141.711 292.525 140.505 290.662 138.969C288.69 137.324 287.156 135.24 286.17 132.717C285.184 130.304 284.636 127.453 284.636 124.052C284.746 120.981 285.294 118.349 286.28 115.826C287.156 113.523 288.361 111.219 289.676 109.026C290.991 106.942 292.525 104.967 294.058 103.103C294.387 102.664 294.716 102.335 295.045 101.896H293.949C293.511 102.554 293.072 103.212 292.634 103.871C291.867 104.967 291.21 106.064 290.553 107.161C290.443 107.38 290.333 107.6 290.224 107.819C288.909 110.232 286.608 111.658 283.979 111.768C283.869 111.768 283.541 111.768 283.431 111.768C281.788 111.768 280.144 111.329 278.72 110.561C277.186 109.684 275.872 108.368 274.995 106.832C273.68 104.638 273.571 102.116 274.557 99.8123C274.886 98.8251 275.652 97.5089 276.638 95.8637C277.186 94.9862 277.734 93.999 278.391 93.1216C278.282 92.6828 278.063 92.1344 278.063 91.6957C277.844 90.3795 277.625 88.9536 277.625 87.5277C277.625 85.2243 277.953 82.8113 278.501 80.1789C279.049 77.6561 279.706 75.3528 280.473 73.2688C280.911 72.0623 281.678 70.5267 282.993 68.5524C284.308 66.4684 285.951 64.7135 287.704 63.2876C289.895 61.5326 292.306 60.6552 294.825 60.4358C294.935 60.4358 295.264 60.4358 295.373 60.4358C297.345 60.4358 300.303 61.2036 302.933 64.6038C303.262 64.8231 303.481 65.1522 303.7 65.4812C305.672 68.5524 306.329 72.2816 305.672 76.669C305.562 77.6561 305.343 78.6433 305.124 79.6305L315.204 79.4111C316.737 79.4111 318.162 79.4111 319.476 79.5208C321.339 79.6305 323.092 79.9595 324.626 80.5079C326.379 81.166 327.912 82.2629 329.227 83.6888C330.651 85.334 331.418 87.418 331.638 89.9407C331.638 92.4635 331.199 94.5474 330.104 96.4121C329.994 96.6314 329.885 96.8508 329.775 97.0702C330.871 96.083 332.076 95.6443 333.5 95.6443C334.267 95.6443 335.034 95.754 335.91 96.083C336.896 96.4121 337.992 96.8508 339.088 97.5089C340.183 98.167 341.279 98.8251 342.265 99.5929C344.018 101.128 345.004 102.883 345.004 104.748C345.004 105.626 344.785 106.393 344.346 107.161C341.06 112.865 337.663 118.239 334.377 123.065C330.98 128.001 327.255 132.388 323.53 136.227C321.339 138.421 318.381 140.286 314.765 141.602C311.04 142.699 307.425 143.357 303.809 143.357Z" fill="#FEBC12"/>
<path d="M341.936 179.662C339.197 179.662 336.458 179.333 333.829 178.565C330.98 177.797 328.46 176.591 326.16 174.836C323.859 173.081 321.887 170.887 320.243 168.255C318.6 165.513 317.504 162.332 316.956 158.603C316.518 155.532 316.847 152.68 317.943 149.938C318.929 147.305 320.572 145.002 322.763 142.918C323.64 142.041 324.626 141.273 325.612 140.505C324.845 140.066 324.078 139.408 323.421 138.86C321.668 137.214 320.243 135.13 319.257 132.498C318.381 130.085 317.833 127.233 317.833 124.052C317.943 120.872 318.49 117.91 319.476 114.949C320.462 112.207 321.668 109.464 323.092 106.832C324.516 104.309 325.94 101.787 327.584 99.2638C329.227 96.8508 330.761 94.5474 332.295 92.3538C333.39 90.8182 334.486 89.3923 335.363 87.9664C336.239 86.6502 337.006 85.5534 337.554 84.5662C337.882 83.9081 338.43 83.25 339.088 82.8113L340.95 81.6048C341.717 81.166 342.484 80.837 343.36 80.837C345.113 80.7273 347.085 80.6176 349.386 80.6176C351.577 80.6176 354.864 80.5079 359.027 80.5079C360.78 80.5079 362.424 81.4951 363.3 82.921C364.177 84.4565 364.177 86.3212 363.3 87.8567C361.657 90.7085 360.233 93.2312 359.027 95.2055C357.932 97.2895 356.836 99.1542 355.96 100.909C355.083 102.664 354.207 104.419 353.44 106.284C352.892 107.6 352.235 109.135 351.577 110.781C352.673 110.013 353.659 109.135 354.645 108.148C355.631 107.161 356.398 106.064 357.165 104.858L359.356 101.019C359.466 100.799 359.685 100.58 359.794 100.361C361.109 97.9476 362.753 95.4249 364.505 92.7925C366.478 89.831 368.888 86.3212 371.846 82.5919C372.722 81.3854 374.147 80.7273 375.681 80.7273C376.119 80.7273 376.995 80.7273 378.2 80.6176C379.625 80.6176 380.83 80.5079 382.035 80.5079C382.692 80.5079 383.459 80.5079 384.555 80.3982C385.76 80.3982 386.965 80.2885 388.061 80.2885H392.772C394.634 80.2885 396.278 81.2757 397.154 83.0306C398.031 84.6759 397.812 86.6502 396.716 88.1858C393.101 93.1216 390.142 97.9476 388.061 102.664C389.047 101.128 390.033 99.3735 391.019 97.5089C391.348 96.9605 391.676 96.5217 392.115 96.083C393.648 94.7668 395.511 94.1087 397.483 94.1087C399.674 94.2184 401.208 94.6571 402.632 95.5346C404.057 96.4121 405.262 97.5089 406.138 99.0445C407.234 100.909 407.562 102.993 407.015 105.077C406.905 105.516 406.686 105.955 406.467 106.393C404.385 109.793 402.084 113.413 399.455 117.471C396.606 121.749 393.758 125.259 390.909 128.111C388.609 130.304 385.979 132.388 383.24 134.143C381.268 135.459 379.186 136.666 377.214 137.763C375.79 142.918 374.147 148.073 372.175 153.228C369.874 159.261 366.697 165.074 362.643 170.558C360.342 173.52 357.275 175.823 353.44 177.359C349.715 178.894 345.88 179.662 341.936 179.662Z" fill="#FEBC12"/>
<path d="M435.719 147.744C429.146 147.744 422.134 146.647 414.793 144.454C407.562 142.26 400.003 138.75 392.114 134.034C391.019 133.376 390.142 132.279 389.923 130.962C389.595 129.646 389.814 128.33 390.581 127.233L414.465 90.4892C415.341 89.173 416.656 88.4052 418.299 88.2955C418.409 88.2955 418.518 88.2955 418.628 88.2955C420.052 88.2955 421.477 88.9536 422.353 90.0504C426.297 94.6571 430.022 97.9476 433.747 99.922C437.253 101.787 440.759 102.664 444.155 102.664C447.333 102.664 450.619 102.006 454.016 100.799C457.631 99.4832 461.247 97.6186 464.972 95.2056C468.697 92.6828 472.531 89.7214 476.256 86.4309C478.995 83.9081 481.844 81.166 484.583 78.2046C484.364 77.7658 484.145 77.3271 483.926 76.7787C481.187 77.8755 478.119 78.4239 474.942 78.5336C474.394 78.5336 473.627 78.5336 472.97 78.5336C469.025 78.5336 464.972 77.9852 461.028 76.7787C456.536 75.4625 452.372 73.5978 448.647 71.4042C444.813 69.1008 441.416 66.4684 438.568 63.6166C435.61 60.5455 433.419 57.3646 431.994 54.0741C431.337 52.2095 430.899 50.5643 430.57 48.8093C430.241 47.1641 430.132 45.5188 430.132 43.9832C430.132 39.0474 431.446 34.4407 434.076 30.3824C436.486 26.6532 439.773 23.3627 443.717 20.5109C447.552 17.7688 452.044 15.3557 457.083 13.3814C461.904 11.5168 467.163 9.87156 472.422 8.66504C477.681 7.45851 483.159 6.47136 488.527 5.92294C493.896 5.37452 499.154 5.04547 504.085 5.04547H506.824C511.863 5.04547 517.013 5.26484 522.162 5.81326C528.297 6.36168 534.323 7.45852 540.13 8.8844C545.936 10.3103 551.634 12.3943 556.892 14.917C562.261 17.4397 567.301 20.6206 571.683 24.4595C574.422 26.8725 576.832 29.834 578.914 33.3439C580.996 36.8538 582.529 40.254 583.406 43.6542C584.173 46.5059 584.611 49.1384 584.611 51.4417C584.611 56.4872 583.296 61.0939 580.776 65.0425C578.366 68.7718 575.298 71.9526 571.464 74.6947C567.848 77.2174 563.795 79.5208 559.303 81.2757C556.454 82.3726 553.606 83.4694 550.867 84.2372C550.867 84.8953 550.976 85.5534 550.976 86.3212C550.976 88.4052 550.757 90.4892 550.428 92.5731C550.1 94.5475 549.661 96.4121 549.223 98.0573C549.114 98.4961 549.004 98.7154 549.004 98.9348L548.675 100.58C548.566 101.238 548.347 101.787 548.237 102.445C547.689 105.955 547.47 108.806 547.47 111C547.47 115.168 548.128 116.484 548.237 116.594C548.347 116.594 548.456 116.594 548.566 116.594C549.442 116.594 550.538 116.155 551.853 115.497C553.715 114.51 555.578 113.194 557.44 111.439C559.412 109.684 561.384 107.6 563.247 105.187C565.109 102.883 566.753 100.361 568.068 97.838C568.944 96.083 570.807 94.9862 572.888 94.9862C573.765 94.9862 574.751 95.2056 575.737 95.6443C576.832 96.083 577.928 96.7411 579.133 97.6186C580.338 98.4961 581.324 99.3735 582.201 100.361C584.721 103.322 584.063 106.284 582.749 108.039C582.091 108.806 581.324 109.794 580.229 111.439L577.161 116.265C575.518 118.897 573.765 121.53 571.902 124.052C569.93 126.794 567.739 129.317 565.438 131.84C563.028 134.253 560.398 136.556 557.44 138.64C554.482 140.834 551.086 142.589 547.361 144.015C544.731 145.002 542.102 145.77 539.472 146.209C536.843 146.647 534.323 146.867 531.694 146.867C527.202 146.867 523.038 146.209 519.094 144.783C515.15 143.357 511.754 141.492 508.905 138.969C505.947 136.447 503.646 133.485 502.222 130.195C500.688 126.685 500.25 122.956 500.907 119.117C500.907 118.897 501.017 118.788 501.017 118.568C501.893 115.716 503.318 112.645 505.399 109.245C507.262 106.174 509.343 103.103 511.535 100.032C513.835 96.8508 516.027 93.67 517.999 90.4892C518.327 90.0504 518.547 89.502 518.875 89.0633C518.766 89.0633 517.451 89.0633 517.451 89.0633C517.122 89.0633 516.903 89.0633 516.574 89.0633C512.959 95.0959 508.905 101.019 504.523 106.832C499.483 113.523 493.786 119.775 487.651 125.149C481.515 130.633 474.723 135.46 467.492 139.298C460.042 143.247 451.934 145.879 443.388 147.086C442.293 147.305 440.869 147.415 439.335 147.525C438.239 147.744 437.034 147.744 435.719 147.744ZM532.241 63.9457C534.214 64.3844 535.966 65.0425 537.719 65.8103C541.444 63.7263 544.512 60.9842 546.923 57.6937C549.661 53.9644 550.976 50.1255 550.976 45.8478C550.867 42.5573 550.1 39.9249 548.456 37.6216C547.58 36.415 546.484 35.2085 545.389 34.2214C544.293 36.086 543.307 37.9506 542.321 39.9249C540.458 43.5445 538.596 47.2737 536.733 51.2224C535.967 52.8676 535.2 54.2935 534.652 55.6097C533.994 57.0356 533.447 58.3518 532.68 59.8874C532.132 61.0939 531.475 62.4101 530.817 63.836C531.365 63.7263 531.803 63.836 532.241 63.9457ZM489.075 42.5573C490.828 42.7767 492.471 43.3251 493.896 44.3123C495.758 45.5188 496.963 47.2737 497.73 49.4674C498.497 51.7708 498.935 54.0741 498.935 56.1581C498.935 57.6937 498.716 59.2293 498.387 60.7648C498.607 60.7648 498.826 60.6552 499.045 60.6552C503.318 54.9516 507.371 48.919 511.206 42.7767C514.712 37.0731 518.218 31.1502 521.505 25.337C521.395 25.337 521.286 25.337 521.176 25.337C515.479 24.6789 510.11 24.3498 505.399 24.3498C500.25 24.4595 494.991 25.1176 489.951 26.2144C485.021 27.3113 480.529 28.8469 476.585 30.7115C472.97 32.4664 470.012 34.6601 467.82 36.9635C465.958 38.9378 465.191 40.9121 465.191 43.3251C465.191 44.6413 465.41 45.7382 465.848 46.9447C466.396 48.3706 467.492 49.5771 469.354 50.5642C471.107 51.6611 473.189 52.2095 475.709 52.2095C478.009 52.0998 478.557 51.7708 478.557 51.7708C478.995 51.332 479.434 50.3449 479.762 49.1384C480.201 47.0544 481.515 45.1897 483.378 43.9832C484.802 43.1058 486.445 42.5573 488.089 42.5573C488.308 42.4476 488.965 42.5573 489.075 42.5573Z" fill="#FEBC12"/>
<path d="M617.15 144.234C611.234 144.234 606.304 141.602 603.017 136.666C601.702 134.692 600.716 132.498 599.84 130.085C599.292 130.633 598.744 131.292 598.087 131.84C595.567 134.472 593.266 136.556 591.185 138.092C590.965 138.311 590.746 138.64 590.527 138.75C589.103 139.847 587.021 140.944 584.173 142.041C581.215 143.137 578.147 143.686 574.97 143.686C571.026 143.686 567.301 142.589 563.904 140.286C560.07 137.653 557.988 133.156 557.44 126.794C557.111 121.53 558.098 115.826 560.398 109.794C562.699 103.98 565.876 98.6058 569.93 93.7797C574.093 88.8439 578.914 84.8953 584.501 81.9338C589.103 79.5208 593.924 78.3142 598.854 78.3142C600.388 78.3142 601.812 78.4239 603.346 78.6433C603.455 78.6433 603.674 78.753 603.784 78.753C604.113 78.8627 604.441 78.9723 604.88 79.082C606.194 75.5721 607.728 72.172 609.372 68.9911C611.782 64.2747 614.521 59.7777 617.26 55.8291C620.108 51.7708 623.067 48.1512 626.244 45.08C629.421 42.0089 632.598 39.3765 635.775 37.5119C638.953 35.7569 642.459 34.8795 646.293 34.8795C648.265 34.8795 650.128 35.0988 651.99 35.6472C653.853 36.1957 655.606 37.0731 657.14 38.2797C658.893 39.5959 660.207 41.3508 661.084 43.5445C661.96 45.6285 662.289 48.0415 661.96 50.6739C661.303 56.7065 659.66 62.1907 657.249 66.9071C654.839 71.5139 651.99 75.7915 648.594 79.5208C645.307 83.1403 641.801 86.4308 638.076 89.3923C635.118 91.6957 632.27 93.8893 629.421 95.8637L628.435 104.309C628.435 104.419 628.435 104.638 628.325 104.748C628.216 105.296 628.216 105.845 628.216 106.284C628.216 106.942 628.106 107.6 628.106 108.258C628.106 110.452 628.325 111.768 628.545 112.645C629.311 112.207 630.626 111.219 632.379 109.574C633.256 108.697 634.023 107.819 634.68 106.832C635.556 105.406 636.652 103.761 637.857 101.896L640.596 97.3992C640.815 96.9605 641.144 96.6314 641.582 96.1927C643.116 94.8765 644.979 94.2184 646.951 94.2184C647.06 94.2184 647.389 94.2184 647.389 94.2184C649.032 94.3281 650.676 94.7668 652.1 95.6443C653.524 96.5218 654.729 97.7283 655.606 99.1542C656.701 101.019 657.03 103.103 656.592 105.187C656.482 105.626 656.263 106.174 656.044 106.613L651.771 113.852C651.662 114.071 651.443 114.291 651.223 114.51C649.142 118.129 646.951 121.639 644.759 125.04C642.349 128.769 639.281 132.279 635.885 135.35C635.666 135.679 635.447 135.898 635.118 136.118C629.092 141.602 622.957 144.234 617.15 144.234ZM599.84 97.0702C599.511 97.2895 599.182 97.3992 598.744 97.7283C596.882 98.9348 595.238 100.47 593.705 102.225C592.28 103.98 591.075 105.845 590.308 107.71C589.979 108.477 589.651 109.245 589.541 110.013C590.199 109.793 590.856 109.464 591.623 109.135C592.718 108.477 594.033 107.49 595.457 106.174C596.663 105.077 597.649 104.09 598.525 103.103C598.963 101.128 599.402 99.1542 599.84 97.0702Z" fill="#FEBC12"/>
<path d="M183.951 46.2866C179.459 50.4546 174.31 54.2935 168.503 57.8034C162.696 61.4229 156.561 64.6038 150.097 67.3459C143.633 70.088 136.84 72.501 129.828 74.4753C122.816 76.4496 115.914 77.9852 108.902 78.8627C107.697 82.1532 106.711 85.6631 106.054 89.1729C105.396 92.7925 104.958 96.3024 104.958 99.8123C104.958 103.212 105.287 106.613 106.054 109.793C107.04 115.168 109.45 119.117 113.066 121.639C116.791 124.162 120.954 125.478 125.775 125.478C132.348 125.478 139.141 123.394 146.262 119.226C153.384 115.058 159.629 108.806 164.997 100.361L164.887 100.799C166.093 98.9348 167.188 97.838 168.284 97.6186C169.379 97.3992 170.146 97.7283 170.804 98.4961C171.461 99.2639 171.899 100.251 172.118 101.458C172.338 102.664 172.228 103.651 171.79 104.529C167.846 111.439 163.463 117.471 158.752 122.627C153.931 127.672 149.001 131.95 143.852 135.24C138.703 138.531 133.553 141.053 128.185 142.699C122.926 144.344 117.667 145.112 112.518 145.112C104.849 145.112 97.9464 143.466 91.8111 140.176C85.5662 136.885 81.0742 132.169 78.3352 126.027C76.9109 123.065 75.9249 119.994 75.2675 116.813C74.6102 113.632 74.2815 110.232 74.2815 106.722C74.2815 102.335 74.8293 97.838 75.9249 93.3409C77.0205 88.8439 78.5543 84.3469 80.636 79.6304C75.3771 79.1917 70.1182 78.4239 64.6402 77.2174C59.1623 76.0109 53.9034 74.3656 48.6445 72.2816C43.3856 70.1976 38.3459 67.5652 33.5253 64.3844C28.7046 61.3133 24.2127 57.584 20.2685 53.1967C17.0913 49.4674 14.4619 45.5188 12.5993 41.3508C10.7368 37.1828 9.75079 33.3439 9.75079 29.9437C9.75079 24.6789 11.5038 20.5109 15.0097 17.2204C16.8722 15.4654 18.9538 14.2589 21.145 13.4911C23.3362 12.7233 25.7465 12.3943 28.2664 12.3943C31.9914 12.3943 35.826 13.1621 39.6606 14.8073C43.4952 16.4526 47.0011 18.6463 50.0688 21.3884C53.1365 24.1304 55.6563 27.3113 57.5189 30.9308C59.3814 34.5504 60.3674 38.3893 60.2579 42.4476C60.1483 43.5445 59.8196 44.4219 59.1623 45.0801C58.5049 45.7382 57.8475 46.0672 57.0806 46.1769C56.3137 46.1769 55.4372 45.9575 54.5607 45.4091C53.6843 44.8607 53.0269 43.8735 52.3696 42.4476C50.7262 39.2668 48.535 36.8538 45.796 35.2085C43.057 33.5633 40.5371 32.7955 38.1268 32.7955C37.0312 32.7955 36.0451 32.9052 35.1687 33.2342C34.2922 33.5633 33.6348 33.8923 33.3061 34.331C32.7583 34.9891 32.4297 35.7569 32.101 36.5247C31.7723 37.2925 31.6628 38.0603 31.6628 38.7184C31.6628 41.0218 32.6488 43.4348 34.6209 45.9575C36.5929 48.4803 39.0033 50.7836 41.9614 52.8676C48.535 57.6937 55.6563 61.4229 63.5446 64.165C71.433 66.9071 78.9926 68.5524 86.2235 69.1008C92.0302 59.9971 99.6994 51.1127 109.341 42.667C114.819 38.0603 120.406 33.6729 126.322 29.3953C132.239 25.2273 138.155 21.7174 144.181 18.7559C150.973 15.5751 156.999 13.2718 162.477 11.8459C167.955 10.42 172.666 9.76187 176.829 9.76187C183.293 9.76187 188.114 11.0781 191.291 13.8202H191.182C194.688 16.5623 196.441 20.1818 196.441 24.8982C196.441 27.9694 195.455 31.2599 193.592 34.8795C191.73 38.499 188.443 42.338 183.951 46.2866ZM147.139 34.1117C140.346 38.499 134.211 43.4348 128.733 49.0287C123.145 54.6225 118.544 60.7648 114.709 67.3459C118.653 66.6878 122.488 65.8103 126.213 64.7135C129.938 63.6166 133.663 62.5198 137.169 61.2036C144.728 58.5712 151.959 55.3903 159.081 51.5514C166.093 47.7125 172.447 42.8864 178.144 37.1828V37.2925C182.855 32.3567 185.266 28.2984 185.266 25.0079C185.266 22.3755 183.184 21.0593 179.021 21.0593C175.843 21.0593 171.571 22.0465 166.202 24.0208C160.834 25.9951 154.479 29.3953 147.139 34.1117Z" fill="#EC2327"/>
<path d="M175.076 85.7727C176.829 85.6631 178.802 85.5534 180.993 85.5534C183.184 85.5534 186.361 85.4437 190.524 85.4437C188.771 88.4052 187.347 90.8182 186.252 92.9022C185.046 94.9862 184.06 96.9605 183.074 98.7154C182.088 100.58 181.212 102.445 180.335 104.419C179.459 106.393 178.582 108.697 177.487 111.329C176.829 113.303 176.391 114.949 176.391 116.045C176.391 117.362 177.049 118.02 178.254 118.02C179.24 118.02 180.335 117.691 181.65 117.142C182.855 116.594 184.17 115.826 185.485 114.839C186.799 113.852 188.114 112.755 189.319 111.548C190.524 110.342 191.62 108.916 192.606 107.49C193.921 105.296 195.235 103.212 196.66 101.348C197.974 99.4832 199.289 97.7283 200.385 95.9733C201.48 94.2184 202.576 92.5731 203.672 91.0376C204.767 89.3923 205.753 87.7471 206.739 85.8824C209.259 85.6631 211.669 85.5534 213.861 85.5534C216.161 85.5534 219.229 85.4437 223.173 85.4437L217.914 94.7668C215.833 98.167 213.751 101.677 211.889 105.187C210.026 108.697 208.492 112.316 207.397 115.936C206.63 118.568 206.191 120.543 206.191 121.968C206.191 123.065 206.739 123.285 207.835 122.736C208.93 122.078 210.245 121.091 211.669 119.665C213.094 118.239 214.628 116.594 216.161 114.839C217.695 112.974 219.01 111.548 219.886 110.342C220.982 108.916 221.749 107.929 222.187 107.271C222.625 106.613 222.954 105.845 223.392 105.077L226.241 100.251C226.789 99.5929 227.446 99.2639 228.432 99.2639C229.418 99.2639 230.295 99.5929 231.171 100.141C232.048 100.69 232.705 101.348 233.143 102.225C233.581 103.103 233.581 103.871 233.253 104.529C230.295 110.123 227.337 115.168 224.159 119.665C220.982 124.272 217.257 128.549 213.094 132.388H213.203C211.45 134.143 209.369 135.569 206.739 136.666C204.11 137.873 201.48 138.421 198.851 138.421C195.893 138.421 193.373 137.653 191.182 136.118C188.991 134.582 187.676 131.95 187.128 128.22L182.746 132.498H182.855C181.102 134.253 178.802 135.679 175.953 136.776C173.104 137.982 170.256 138.531 167.407 138.531C165.545 138.531 163.901 138.311 162.258 137.763C160.615 137.214 159.19 136.447 157.985 135.35C156.78 134.253 155.794 132.717 155.137 130.853C154.479 128.988 154.041 126.794 154.041 124.162C154.151 121.639 154.589 119.117 155.465 116.594C156.342 114.071 157.437 111.658 158.752 109.135C160.067 106.722 161.491 104.309 163.025 102.006C164.559 99.5929 166.093 97.3992 167.626 95.3152C168.722 93.7797 169.818 92.3538 170.804 90.8182C171.79 89.3923 172.666 88.0761 173.214 86.9793L175.076 85.7727Z" fill="#EC2327"/>
<path d="M232.376 105.516C231.829 106.393 231.171 106.942 230.185 106.942C229.199 106.942 228.323 106.832 227.556 106.284C226.789 105.845 226.131 105.187 225.584 104.309C225.036 103.432 225.036 102.554 225.474 101.567C225.803 100.799 226.351 99.7026 227.117 98.3864C227.884 97.0702 228.761 95.754 229.637 94.3281V94.4378C229.747 94.2184 229.966 93.8893 230.185 93.3409C229.637 92.5731 229.199 91.586 228.98 90.5988C228.761 89.6117 228.651 88.5148 228.651 87.418C228.651 85.5534 228.87 83.3597 229.418 81.166C229.966 78.8627 230.514 76.7787 231.281 74.9141C231.609 74.0366 232.267 72.7204 233.362 71.1848C234.458 69.5395 235.663 68.2233 237.087 67.1265C238.512 66.0297 239.936 65.3716 241.579 65.2619C243.113 65.1522 244.647 66.1393 246.071 68.333V68.2233C247.386 70.1976 247.824 72.8301 247.276 75.9012C246.729 79.082 245.852 81.9338 244.537 84.6759L261.629 84.2372C263.053 84.2372 264.368 84.2372 265.792 84.3469C267.107 84.3469 268.312 84.6759 269.408 85.005C270.503 85.334 271.38 85.9921 272.037 86.8696C272.694 87.6374 273.133 88.7342 273.242 90.1601C273.242 91.586 272.913 92.7925 272.366 93.8893C271.708 94.9862 271.051 96.083 270.394 97.0702C269.079 99.0445 267.983 100.909 266.997 102.445C266.011 103.98 265.135 105.516 264.477 106.942C263.71 108.368 263.053 109.793 262.396 111.219C261.848 112.645 261.191 114.291 260.752 115.936C260.095 118.02 259.876 119.884 259.876 121.42C259.876 122.517 260.424 122.736 261.41 122.078C262.505 121.42 263.71 120.433 265.135 119.007C266.559 117.691 267.983 116.155 269.408 114.51C270.832 112.865 271.818 111.548 272.585 110.452C273.242 109.464 273.899 108.587 274.447 107.929C274.995 107.271 275.433 106.722 275.762 106.064C276.2 105.516 276.529 104.967 276.967 104.309C277.405 103.651 277.844 102.993 278.282 102.006V102.116L279.377 100.251C279.597 99.922 280.035 99.922 280.802 100.141C281.569 100.361 282.336 100.69 283.212 101.238C284.089 101.677 284.855 102.225 285.513 102.774C286.17 103.322 286.499 103.761 286.499 104.2C283.322 109.793 280.035 115.058 276.748 119.665C273.461 124.381 270.065 128.549 266.449 132.169C264.696 133.924 262.396 135.35 259.328 136.447C256.26 137.653 253.302 138.202 250.235 138.202C248.372 138.202 246.51 137.982 244.757 137.434C243.004 136.885 241.47 136.118 240.155 134.911C238.84 133.705 237.745 132.279 236.978 130.414C236.211 128.549 235.882 126.356 235.882 123.614C235.992 121.31 236.43 119.117 237.197 117.142C237.964 115.168 238.95 113.194 240.155 111.329C241.36 109.464 242.675 107.709 244.209 105.955C245.633 104.2 247.167 102.554 248.701 101.019L252.645 96.6314H250.344C249.249 96.7411 247.934 96.7411 246.51 96.7411C245.085 96.7411 243.442 96.7411 241.798 96.7411H237.745C236.978 98.167 236.101 99.5929 235.225 100.909C234.348 102.225 233.472 103.651 232.705 105.077V105.516H232.376Z" fill="#EC2327"/>
<path d="M285.951 105.516C285.403 106.393 284.746 106.942 283.76 106.942C282.774 106.942 281.897 106.832 281.13 106.284C280.364 105.845 279.706 105.187 279.158 104.309C278.611 103.432 278.611 102.554 279.049 101.567C279.377 100.799 279.925 99.7026 280.692 98.3864C281.459 97.0702 282.336 95.754 283.212 94.3281V94.4378C283.322 94.2184 283.541 93.8893 283.76 93.3409C283.212 92.5731 282.774 91.586 282.555 90.5988C282.336 89.6117 282.226 88.5148 282.226 87.418C282.226 85.5534 282.445 83.3597 282.993 81.166C283.541 78.8627 284.089 76.7787 284.855 74.9141C285.184 74.0366 285.841 72.7204 286.937 71.1848C288.033 69.5395 289.238 68.2233 290.662 67.1265C292.086 66.0297 293.511 65.3716 295.154 65.2619C296.688 65.1522 298.222 66.1393 299.646 68.333V68.2233C300.961 70.1976 301.399 72.8301 300.851 75.9012C300.303 79.082 299.427 81.9338 298.112 84.6759L315.204 84.2372C316.628 84.2372 317.943 84.2372 319.367 84.3469C320.682 84.3469 321.887 84.6759 322.982 85.005C324.078 85.4437 324.954 85.9921 325.612 86.8696C326.269 87.6374 326.707 88.7342 326.817 90.1601C326.817 91.586 326.488 92.7925 325.94 93.8893C325.283 94.9862 324.626 96.083 323.968 97.0702C322.654 99.0445 321.558 100.909 320.572 102.445C319.586 103.98 318.709 105.516 318.052 106.942C317.285 108.368 316.628 109.793 315.97 111.219C315.423 112.645 314.765 114.291 314.327 115.936C313.67 118.02 313.451 119.884 313.451 121.42C313.451 122.517 313.998 122.736 314.984 122.078C316.08 121.42 317.285 120.433 318.709 119.007C320.134 117.691 321.558 116.155 322.982 114.51C324.407 112.865 325.393 111.548 326.16 110.452C326.817 109.464 327.474 108.587 328.022 107.929C328.57 107.271 329.008 106.722 329.337 106.064C329.775 105.516 330.104 104.967 330.542 104.309C330.98 103.651 331.418 102.993 331.857 102.006V102.116L332.952 100.251C333.171 99.922 333.61 99.922 334.376 100.141C335.143 100.361 335.91 100.69 336.787 101.238C337.663 101.677 338.43 102.225 339.088 102.774C339.745 103.322 340.074 103.761 340.074 104.2C336.896 109.793 333.61 115.058 330.323 119.665C327.036 124.381 323.64 128.549 320.024 132.169C318.271 133.924 315.97 135.35 312.903 136.447C309.835 137.653 306.877 138.202 303.809 138.202C301.947 138.202 300.084 137.982 298.331 137.434C296.578 136.885 295.045 136.118 293.73 134.911C292.415 133.705 291.32 132.279 290.553 130.414C289.786 128.549 289.457 126.356 289.457 123.614C289.567 121.31 290.005 119.117 290.772 117.142C291.539 115.168 292.525 113.194 293.73 111.329C294.935 109.464 296.25 107.709 297.784 105.955C299.208 104.2 300.742 102.554 302.275 101.019L306.22 96.6314H303.919C302.823 96.7411 301.509 96.7411 300.084 96.7411C298.66 96.7411 297.017 96.7411 295.373 96.7411H291.319C290.553 98.167 289.676 99.5929 288.8 100.909C287.923 102.225 287.047 103.651 286.28 105.077V105.516H285.951Z" fill="#EC2327"/>
<path d="M343.908 85.7727C345.661 85.663 347.633 85.5534 349.824 85.5534C352.016 85.5534 355.193 85.4437 359.356 85.4437C357.603 88.4051 356.179 90.8182 355.083 92.9022C353.878 94.9862 352.892 96.9605 351.906 98.7154C350.92 100.58 350.043 102.445 349.167 104.419C348.291 106.393 347.414 108.697 346.428 111.329C345.771 113.303 345.332 114.949 345.332 116.045C345.332 117.362 345.99 118.02 347.195 118.02C348.181 118.02 349.386 117.691 350.701 117.142C352.016 116.594 353.33 115.826 354.645 114.949C355.96 114.071 357.165 112.974 358.37 111.658C359.575 110.452 360.671 109.026 361.547 107.49L363.848 103.542V103.651C365.272 101.128 366.916 98.3864 368.778 95.5346C370.641 92.5731 373.051 89.2826 375.9 85.663C376.447 85.663 377.324 85.663 378.639 85.5534C379.953 85.5534 381.158 85.4437 382.254 85.4437C382.911 85.4437 383.897 85.4437 384.993 85.334C386.089 85.334 387.184 85.2243 388.28 85.2243C389.375 85.2243 390.361 85.2243 391.238 85.2243C392.114 85.2243 392.662 85.2243 392.991 85.2243C388.28 91.586 384.664 97.8379 382.364 103.871C379.953 110.013 378.091 115.936 376.557 121.749C378.529 120.433 380.392 119.117 382.035 117.691C383.678 116.265 385.212 114.729 386.746 112.974C388.17 111.219 389.595 109.355 391.019 107.161C392.443 104.967 393.867 102.554 395.401 99.7026C396.059 99.1542 396.935 98.8251 397.812 98.8251C398.688 98.8251 399.564 99.1542 400.331 99.5929C401.098 100.032 401.646 100.69 402.194 101.458C402.632 102.225 402.742 102.993 402.523 103.761C400.551 107.051 398.14 110.781 395.62 114.729C392.991 118.678 390.361 121.968 387.732 124.491C385.65 126.465 383.35 128.33 380.83 129.975C378.31 131.621 375.79 133.046 373.27 134.363C371.736 140.066 369.983 145.77 367.792 151.364C365.711 156.958 362.752 162.332 358.918 167.487C357.165 169.681 354.864 171.436 351.796 172.752C348.729 173.959 345.552 174.617 342.265 174.617C339.964 174.617 337.663 174.288 335.472 173.739C333.281 173.081 331.199 172.204 329.446 170.778C327.584 169.461 326.05 167.707 324.735 165.513C323.42 163.429 322.544 160.796 322.215 157.835C321.887 155.641 322.106 153.557 322.873 151.583C323.64 149.718 324.845 147.963 326.488 146.318C328.132 144.673 330.104 143.247 332.404 141.821C334.705 140.395 337.225 139.079 339.964 137.873C339.416 137.982 338.868 138.092 338.321 138.092C337.663 138.092 337.115 138.202 336.458 138.202C334.596 138.202 332.952 137.982 331.309 137.434C329.665 136.885 328.241 136.118 327.036 135.021C325.831 133.924 324.845 132.388 324.187 130.524C323.53 128.659 323.092 126.465 323.092 123.833C323.201 121.31 323.64 118.788 324.516 116.265C325.393 113.742 326.488 111.329 327.803 108.806C329.118 106.393 330.542 103.98 332.076 101.677C333.61 99.2638 335.143 97.0702 336.677 94.9862C337.773 93.4506 338.868 92.0247 339.854 90.4891C340.84 89.0632 341.717 87.747 342.265 86.6502L343.908 85.7727ZM346.976 145.112C345.223 145.879 343.579 146.757 342.046 147.525C340.512 148.292 339.087 149.28 337.773 150.267C337.225 150.815 336.787 151.364 336.348 152.022C335.91 152.68 335.691 153.228 335.691 153.777C335.691 154.544 335.91 155.203 336.458 155.641C337.006 156.08 337.663 156.299 338.43 156.299C339.526 156.299 340.621 155.751 341.826 154.764C343.032 153.667 344.127 151.912 345.223 149.28L346.976 145.112ZM349.934 133.814L351.249 133.375C351.358 133.266 351.358 133.156 351.358 133.046C351.358 132.937 351.358 132.717 351.468 132.498L349.934 133.814Z" fill="#EC2327"/>
<path d="M501.784 65.0425C506.604 58.6808 511.096 52.0998 515.369 45.2994C519.642 38.499 523.586 31.589 527.421 24.5692L538.267 24.4595C533.118 22.4852 527.64 21.0593 521.614 20.4012C515.698 19.7431 510.22 19.3044 505.29 19.3044C499.702 19.4141 494.115 20.0722 488.746 21.2787C483.378 22.4852 478.557 24.1305 474.284 26.2144C470.011 28.2984 466.615 30.7115 463.986 33.6729C461.356 36.5247 460.042 39.7056 460.042 43.2154C460.042 45.0801 460.37 46.9447 461.137 48.6996C462.014 51.003 463.876 52.9773 466.615 54.6225C469.354 56.2678 472.531 57.0356 476.147 56.9259C478.776 56.8162 480.639 56.1581 481.844 55.0613C483.049 53.8548 483.816 52.2095 484.364 50.1255C484.583 49.248 485.021 48.4803 485.898 48.0415C486.665 47.4931 487.541 47.3834 488.527 47.3834C489.513 47.4931 490.39 47.8222 491.266 48.3706C492.143 48.919 492.8 49.7965 493.129 51.003C493.786 52.8676 494.005 54.5129 494.005 56.1581C494.005 58.4615 493.567 60.6552 492.581 62.7392C491.595 64.8231 490.28 66.5781 488.527 68.2233C486.774 69.7589 484.802 71.0751 482.282 72.0623C479.872 73.0494 477.242 73.5978 474.394 73.7075C470.231 73.9269 466.177 73.3785 462.123 72.172C458.069 70.9654 454.235 69.3202 450.839 67.2362C447.333 65.1522 444.374 62.8488 441.745 60.2164C439.225 57.584 437.363 54.9516 436.267 52.2095C435.719 50.7836 435.391 49.3577 435.171 47.9318C434.952 46.506 434.843 45.1897 434.843 43.9832C434.843 39.9249 435.938 36.3054 438.02 33.1245C440.102 29.9437 442.95 26.9822 446.456 24.4595C449.962 21.9368 454.125 19.7431 458.727 17.9882C463.438 16.1235 468.259 14.6977 473.408 13.4911C478.557 12.2846 483.706 11.4071 488.965 10.8587C494.224 10.3103 499.264 9.98125 504.085 9.98125C509.891 9.87156 515.807 10.0909 521.724 10.6393C527.64 11.1878 533.337 12.1749 538.925 13.6008C544.512 15.0267 549.771 16.8913 554.811 19.3044C559.851 21.7174 564.452 24.5692 568.506 28.1888C570.807 30.1631 572.888 32.7955 574.751 35.8666C576.613 39.0475 577.928 42.0089 578.804 44.9704C579.462 47.3834 579.9 49.5771 579.9 51.4417C579.9 55.6097 578.914 59.2293 576.832 62.4101C574.751 65.5909 572.121 68.333 568.725 70.7461C565.438 73.1591 561.713 75.1334 557.55 76.7787C553.386 78.4239 549.333 79.7401 545.279 80.837C545.608 81.8241 545.827 82.8113 545.936 83.5791C546.046 84.4565 546.046 85.334 546.046 86.3212C546.046 88.1858 545.936 89.9407 545.608 91.8054C545.279 93.67 544.95 95.3152 544.512 96.7411C544.403 97.0702 544.293 97.5089 544.183 98.0573C544.074 98.6058 543.964 99.1542 543.855 99.5929C543.745 100.141 543.636 100.69 543.417 101.238C542.759 105.187 542.54 108.368 542.54 110.89C542.54 114.729 543.088 117.471 544.074 119.007C545.06 120.652 546.484 121.42 548.128 121.42C549.99 121.42 551.962 120.872 554.044 119.665C556.235 118.459 558.426 116.923 560.617 114.949C562.809 112.974 565 110.671 567.081 108.148C569.163 105.626 570.916 102.883 572.45 100.032C572.669 99.5929 573.107 99.5929 573.984 99.922C574.751 100.251 575.627 100.799 576.504 101.348C577.38 102.006 578.037 102.554 578.585 103.212C579.133 103.871 579.243 104.419 578.914 104.748C578.147 105.626 577.161 106.942 576.175 108.477C575.189 110.123 574.203 111.658 573.107 113.303C571.464 115.826 569.82 118.349 567.958 120.872C566.095 123.394 564.123 125.807 561.932 128.001C559.741 130.304 557.331 132.388 554.592 134.253C551.962 136.118 548.895 137.763 545.608 139.079C543.307 139.957 541.006 140.615 538.705 141.053C536.405 141.492 534.104 141.711 531.803 141.711C527.859 141.711 524.244 141.053 520.847 139.847C517.451 138.64 514.602 136.995 512.192 134.911C509.782 132.827 508.029 130.524 506.824 127.891C505.618 125.259 505.29 122.517 505.838 119.555C506.495 117.142 507.81 114.4 509.672 111.439C511.535 108.477 513.507 105.516 515.588 102.445C517.889 99.2639 520.08 95.9733 522.162 92.6828C524.244 89.3923 525.558 86.3212 526.216 83.5791C525.449 83.6888 524.791 83.6888 524.244 83.6888C523.696 83.6888 523.258 83.6888 522.929 83.6888C521.066 83.6888 519.533 83.6888 518.327 83.7984C517.122 83.7984 515.698 83.7984 514.055 83.5791C510.11 90.3795 505.728 96.9605 500.798 103.432C495.868 109.903 490.499 115.826 484.583 121.091C478.667 126.356 472.312 130.853 465.3 134.582C458.398 138.311 450.839 140.724 442.841 141.821C441.745 142.041 440.54 142.15 439.335 142.15C438.02 142.15 436.815 142.26 435.61 142.26C429.474 142.26 423.01 141.273 416.108 139.189C409.315 137.105 402.084 133.814 394.525 129.317L418.518 93.1216C422.791 98.2767 427.174 101.896 431.337 104.2C435.61 106.393 439.773 107.49 444.046 107.49C447.771 107.49 451.605 106.722 455.55 105.296C459.494 103.871 463.547 101.787 467.492 99.1542C471.436 96.5218 475.38 93.4506 479.324 89.831C483.268 86.2115 487.103 82.3725 490.937 78.0949C489.842 77.3271 489.075 76.5593 488.637 75.7915C488.198 75.0237 487.979 74.256 487.979 73.2688C487.979 71.4042 489.184 69.7589 491.704 68.2233C494.334 66.7975 497.73 65.7006 501.784 65.0425ZM555.906 45.7382C555.797 41.4605 554.701 37.7312 552.51 34.6601C550.319 31.589 547.47 29.0662 543.964 27.0919C541.883 30.3824 539.911 33.8923 538.048 37.5119C536.186 41.1314 534.323 44.9704 532.351 49.0287C531.584 50.6739 530.817 52.0998 530.269 53.5257C529.722 54.9516 529.064 56.2678 528.407 57.6937C527.749 59.1196 527.092 60.5455 526.325 62.1907C525.558 63.7263 524.682 65.4812 523.696 67.2362C526.216 67.6749 528.736 68.1137 531.146 68.7718C533.666 69.4299 535.857 70.1976 537.829 71.2945C543.197 68.6621 547.47 65.0425 550.867 60.5455C554.153 55.9388 555.906 51.003 555.906 45.7382Z" fill="#EC2327"/>
<path d="M632.27 132.608C626.792 137.105 621.752 139.408 617.15 139.408C612.878 139.408 609.481 137.653 607.071 134.034C604.661 130.414 603.236 125.698 602.798 119.775C600.169 122.736 597.43 125.588 594.691 128.549C591.842 131.511 589.432 133.595 587.241 135.021H587.569C586.583 135.789 584.83 136.666 582.529 137.543C580.119 138.421 577.709 138.86 575.079 138.86C572.012 138.86 569.273 137.982 566.753 136.337C564.233 134.582 562.809 131.401 562.37 126.465C562.042 121.968 562.918 117.033 565 111.658C567.082 106.284 569.93 101.458 573.655 96.9605C577.38 92.5731 581.763 88.9536 586.802 86.3212C591.842 83.6887 597.101 82.7016 602.688 83.5791C603.455 83.7984 604.332 84.0178 605.208 84.3468C606.085 84.6759 606.961 85.1146 607.728 85.6631C609.372 80.6176 611.344 75.7915 613.644 71.1848C616.055 66.5781 618.575 62.4101 621.204 58.5712C623.834 54.7322 626.682 51.4417 629.531 48.4802C632.489 45.6285 635.337 43.3251 638.186 41.5702C640.487 40.254 643.116 39.5959 646.184 39.5959C647.718 39.5959 649.142 39.8152 650.457 40.254C651.771 40.6927 652.976 41.2411 654.072 42.1186C655.168 42.8864 655.935 43.9832 656.482 45.4091C657.03 46.7253 657.249 48.3706 657.03 50.1255C656.482 55.6097 655.058 60.4358 652.757 64.7134C650.566 68.9911 647.937 72.83 644.869 76.2302C641.801 79.6304 638.515 82.7016 635.009 85.4437C631.503 88.1858 628.106 90.7085 624.71 93.1216L623.505 103.651V103.542C623.395 104.309 623.286 105.187 623.286 105.955C623.286 106.722 623.176 107.49 623.176 108.258C623.176 111.329 623.505 113.852 624.272 115.497C624.929 117.252 626.025 118.02 627.339 118.02C629.531 118.02 632.379 116.375 635.776 113.084C636.871 112.097 637.857 110.89 638.843 109.464C639.72 108.039 640.815 106.393 642.02 104.638L644.869 99.9219C645.526 99.2638 646.403 99.0445 647.279 99.0445C648.156 99.0445 649.032 99.3735 649.799 99.8123C650.566 100.251 651.114 100.909 651.662 101.677C652.1 102.445 652.21 103.212 651.99 104.2L647.718 111.439V111.329C645.526 115.168 643.226 118.897 640.815 122.517C638.405 126.136 635.556 129.427 632.16 132.388V132.608H632.27ZM593.924 113.413C595.567 112.536 597.21 111.329 598.854 109.684C600.607 108.148 602.031 106.613 603.236 105.187C603.894 101.238 604.77 96.9605 605.975 92.3538C605.099 91.6957 604.222 91.2569 603.455 91.2569C600.826 91.2569 598.416 92.0247 596.115 93.5603C593.814 95.0959 591.842 96.8508 590.089 99.0445C588.336 101.128 586.912 103.432 585.926 105.735C584.94 108.148 584.392 110.232 584.392 112.207C584.392 113.084 584.611 113.852 585.049 114.51C585.488 115.168 586.145 115.387 587.131 115.387C587.898 115.387 588.884 115.278 590.089 114.949C591.185 114.62 592.499 114.071 593.924 113.413ZM603.894 104.529L603.236 105.296V105.735L603.894 104.529ZM635.009 63.836C633.037 67.2362 631.393 70.3073 630.188 73.1591C628.983 75.9012 627.997 78.6433 627.12 81.2757C629.312 79.6304 631.503 77.9852 633.584 76.2302C635.666 74.4753 637.748 72.3913 639.61 69.8686C641.473 67.3459 643.335 64.4941 644.979 60.9842C646.622 57.584 648.156 53.416 649.58 48.5899L649.471 49.0287C649.58 48.2609 649.142 48.0415 648.156 48.4802C647.17 48.919 646.512 49.248 645.965 49.6868C643.993 51.5514 642.02 53.8548 640.048 56.3775C638.186 58.7905 636.433 61.3133 635.009 63.836Z" fill="#EC2327"/>
<path d="M128.514 195.895C128.733 195.566 129.39 195.347 130.376 195.347C131.362 195.347 131.91 195.566 132.129 195.895C132.348 196.224 132.458 200.392 132.348 208.399C132.239 215.638 132.02 219.806 131.691 220.793C131.362 221.561 130.814 221.89 130.047 221.89C129.5 221.89 129.171 221.671 128.842 221.123C128.623 220.684 128.404 216.406 128.295 208.399C128.185 200.392 128.295 196.224 128.514 195.895Z" fill="#EC2327"/>
<path d="M154.589 215.748C154.589 215.529 154.26 215.09 153.712 214.432C153.165 213.774 152.836 213.335 152.836 213.006C152.836 212.677 152.507 212.019 151.959 211.251C151.412 210.483 151.083 209.935 151.083 209.606C151.083 209.167 150.754 208.399 149.987 207.302C149.22 206.206 148.782 205.767 148.563 205.876C148.234 206.096 148.125 208.29 148.125 212.787C148.125 214.761 148.125 216.296 148.125 217.393C148.125 218.49 148.015 219.368 147.796 220.026C147.687 220.684 147.467 221.123 147.139 221.342C146.92 221.561 146.481 221.671 146.043 221.671C145.167 221.671 144.509 221.452 144.29 220.903C143.962 220.245 143.742 217.503 143.852 212.787C143.852 212.677 143.852 212.677 143.852 212.677C143.852 206.425 143.962 202.038 144.181 199.515C144.4 196.992 144.728 195.566 145.276 195.127C146.153 194.469 147.029 194.36 147.796 194.908C148.563 195.457 149.33 196.663 150.316 198.528L152.069 202.257C152.617 203.354 152.836 204.012 152.836 204.451C152.836 204.78 153.165 205.328 153.712 206.096C154.26 206.864 154.589 207.522 154.589 207.851C154.589 208.29 155.246 209.167 156.342 210.374C157.437 211.58 158.204 212.128 158.533 212.019C158.752 211.909 158.971 211.141 158.971 209.606C158.971 208.07 158.971 206.425 158.862 204.56C158.752 202.696 158.752 200.941 158.862 199.076C158.971 197.321 159.19 196.115 159.519 195.566C159.957 194.908 160.396 194.579 160.943 194.579C161.491 194.579 161.929 194.798 162.477 195.237C162.806 195.566 163.025 196.553 163.135 198.199C163.244 199.844 163.354 203.354 163.354 208.619L163.463 221.342L161.82 221.452C161.162 221.561 160.505 221.452 160.067 221.123C159.629 220.903 158.752 220.135 157.437 218.929C155.465 217.174 154.589 216.077 154.589 215.748Z" fill="#EC2327"/>
<path d="M176.61 196.553C177.268 196.005 177.816 195.566 178.363 195.457C178.802 195.347 179.897 195.237 181.65 195.237C183.184 195.237 184.28 195.347 185.046 195.457C185.704 195.566 186.58 195.895 187.457 196.334C191.291 198.308 193.811 202.147 194.907 207.631C195.016 208.29 195.126 208.838 195.236 209.496C195.236 210.044 195.345 210.593 195.236 211.141C195.236 211.58 195.126 212.128 195.016 212.567C194.907 213.006 194.797 213.445 194.688 213.774C194.578 214.103 194.469 214.432 194.249 214.761C194.03 215.09 193.921 215.419 193.811 215.529C193.702 215.748 193.483 215.967 193.263 216.187C193.044 216.516 192.825 216.626 192.716 216.735C192.606 216.845 192.497 216.955 192.168 217.284C191.949 217.503 191.73 217.613 191.73 217.613C190.744 218.6 189.867 219.258 189.1 219.697C188.333 220.135 187.347 220.574 186.033 220.903C183.951 221.561 181.65 221.89 179.24 221.89C176.829 221.89 175.296 221.671 175.077 221.123C174.857 220.574 174.748 216.516 174.967 209.057L175.186 197.76L176.61 196.553ZM187.128 201.818C186.471 201.27 185.813 200.941 185.375 200.721C184.937 200.502 184.17 200.502 183.184 200.502C181.65 200.502 180.883 200.721 180.774 201.05C180.664 201.27 180.555 203.354 180.226 207.193C179.897 211.032 179.678 213.883 179.568 215.529C179.568 215.967 179.678 216.296 179.788 216.406C180.007 216.516 180.445 216.626 181.102 216.735C182.198 216.845 183.732 216.626 185.813 215.967C187.128 215.529 188.005 215.2 188.443 214.871C188.881 214.542 189.319 214.103 189.648 213.335C190.524 211.58 190.744 209.606 190.305 207.302C189.758 204.889 188.772 203.134 187.128 201.818Z" fill="#EC2327"/>
<path d="M206.958 195.895C207.178 195.566 207.835 195.347 208.821 195.347C209.807 195.347 210.355 195.566 210.574 195.895C210.793 196.224 210.903 200.392 210.793 208.399C210.683 215.638 210.464 219.806 210.136 220.793C209.807 221.561 209.259 221.89 208.492 221.89C207.944 221.89 207.616 221.671 207.287 221.123C207.068 220.684 206.849 216.406 206.739 208.399C206.739 200.392 206.739 196.224 206.958 195.895Z" fill="#EC2327"/>
<path d="M235.115 197.102C235.663 196.334 236.101 195.786 236.32 195.566C236.649 195.347 237.197 195.237 237.964 195.237C238.95 195.237 239.717 195.347 240.155 195.676C240.593 196.005 240.812 196.444 240.812 197.211C240.812 197.541 240.922 197.87 241.141 198.308C241.36 198.747 241.798 199.734 242.346 201.27C243.004 202.805 243.661 204.889 244.428 207.302C245.085 209.496 245.743 211.47 246.4 213.116C247.057 214.761 247.496 215.967 247.824 216.626C248.153 217.284 248.372 217.832 248.591 218.38C248.81 218.929 248.81 219.258 248.81 219.477C248.81 219.697 248.591 220.026 248.372 220.464C247.934 221.232 247.276 221.671 246.4 221.671C245.852 221.781 245.414 221.671 245.195 221.342C244.976 221.123 244.537 220.245 243.88 218.929C243.004 217.064 242.565 215.858 242.565 215.309C242.565 214.542 242.127 214.103 241.36 213.883C240.593 213.664 238.84 213.664 236.211 213.774C234.129 213.883 232.595 213.993 231.719 214.103C230.842 214.322 230.185 214.542 229.637 215.09C229.09 215.529 228.542 216.406 227.884 217.503C226.789 219.477 225.803 220.793 225.036 221.342C224.269 221.89 223.502 221.89 222.845 221.232C222.297 220.684 222.187 220.026 222.516 219.039C222.845 218.161 223.612 216.516 224.926 214.212L226.789 210.922C227.117 210.264 227.884 208.838 229.199 206.754C230.404 204.67 231.281 203.025 231.938 201.818C232.267 201.16 232.595 200.612 233.034 200.173C233.362 199.734 233.691 199.515 233.801 199.295C234.02 199.186 234.129 198.966 234.129 198.857C234.02 198.966 234.348 198.308 235.115 197.102ZM239.169 207.96C239.059 207.302 238.95 206.535 238.621 205.657C238.293 204.78 238.073 204.012 237.745 203.463C237.416 202.915 237.307 202.586 237.197 202.586C237.087 202.586 236.759 202.805 236.43 203.354C235.992 203.792 235.663 204.341 235.444 204.78L233.91 207.522C233.253 208.728 233.034 209.386 233.253 209.606C233.472 209.825 234.677 209.935 236.649 209.825L239.388 209.715L239.169 207.96Z" fill="#EC2327"/>
<path d="M293.62 194.908C294.058 194.579 297.784 194.469 304.795 194.469H315.204L315.97 195.566C316.409 196.224 316.518 196.882 316.299 197.431C316.08 198.089 315.642 198.528 314.984 198.747C314.217 199.076 312.903 199.186 310.931 199.186C308.959 199.186 307.863 199.405 307.534 199.734C307.206 200.173 306.987 203.792 306.987 210.812L306.877 221.342H305.343C304.686 221.342 304.248 221.232 303.919 221.123C303.59 221.013 303.371 220.574 303.152 219.916C302.823 219.258 302.604 218.38 302.604 217.174C302.604 215.967 302.604 213.554 302.714 209.715C302.823 204.67 302.714 201.818 302.604 200.941C302.275 199.954 301.728 199.405 300.632 199.295C300.194 199.295 299.427 199.295 298.003 199.295C295.702 199.295 294.387 199.186 293.839 198.857C293.292 198.528 292.963 197.979 292.963 196.992C292.744 195.895 293.072 195.237 293.62 194.908Z" fill="#FEBC12"/>
<path d="M328.679 195.676C329.337 195.237 329.775 194.908 329.994 194.908C330.213 194.908 330.651 195.127 331.199 195.566C331.637 195.895 331.857 196.334 331.966 196.992C332.076 197.65 332.185 198.857 332.185 200.831L332.295 205.438H344.237L344.346 200.612C344.456 197.76 344.566 196.115 344.785 195.786C344.894 195.676 345.113 195.457 345.552 195.347C346.318 195.018 346.976 195.018 347.633 195.347C348.071 195.566 348.291 195.895 348.4 196.553C348.51 197.431 348.619 201.27 348.729 207.96C348.838 215.529 348.729 219.806 348.4 220.903C348.071 221.561 347.524 222 346.757 222C346.099 222 345.552 221.781 345.223 221.452C344.894 221.013 344.675 219.039 344.456 215.309L344.127 209.825H332.185L332.076 215.2C332.076 217.284 331.966 218.709 331.857 219.587C331.747 220.464 331.528 221.013 331.309 221.232C330.871 221.671 330.323 222 329.885 222C329.446 222 329.008 221.781 328.679 221.232C328.132 220.245 327.803 214.432 327.693 203.573C327.584 199.405 327.693 196.992 327.912 196.553C328.241 196.224 328.46 196.005 328.679 195.676Z" fill="#FEBC12"/>
<path d="M373.38 197.102C373.928 196.334 374.366 195.786 374.585 195.566C374.914 195.347 375.461 195.237 376.228 195.237C377.214 195.237 377.981 195.347 378.419 195.676C378.858 196.005 379.077 196.444 379.077 197.211C379.077 197.541 379.186 197.87 379.405 198.308C379.625 198.747 380.063 199.734 380.611 201.27C381.268 202.805 381.925 204.889 382.692 207.302C383.35 209.496 384.007 211.47 384.664 213.116C385.322 214.761 385.76 215.967 386.089 216.626C386.417 217.284 386.636 217.832 386.856 218.38C387.075 218.929 387.075 219.258 387.075 219.477C387.075 219.697 386.856 220.026 386.636 220.464C386.198 221.232 385.541 221.671 384.664 221.671C384.117 221.781 383.678 221.671 383.459 221.342C383.24 221.123 382.802 220.245 382.144 218.929C381.268 217.064 380.83 215.858 380.83 215.309C380.83 214.542 380.392 214.103 379.625 213.883C378.858 213.664 377.105 213.664 374.475 213.774C372.394 213.883 370.86 213.993 369.983 214.103C369.107 214.322 368.45 214.542 367.902 215.09C367.354 215.529 366.806 216.406 366.149 217.503C365.053 219.477 364.067 220.793 363.3 221.342C362.533 221.89 361.766 221.89 361.109 221.232C360.561 220.684 360.452 220.026 360.78 219.039C361.109 218.161 361.876 216.516 363.191 214.212L365.053 210.922C365.382 210.264 366.149 208.838 367.463 206.754C368.669 204.67 369.545 203.025 370.202 201.818C370.531 201.16 370.86 200.612 371.298 200.173C371.627 199.734 371.955 199.515 372.065 199.295C372.284 199.186 372.394 198.966 372.394 198.857C372.175 198.966 372.613 198.308 373.38 197.102ZM377.433 207.96C377.324 207.302 377.214 206.535 376.886 205.657C376.557 204.78 376.338 204.012 376.009 203.463C375.68 202.915 375.571 202.586 375.461 202.586C375.352 202.586 375.023 202.805 374.694 203.354C374.256 203.792 373.928 204.341 373.708 204.78L372.175 207.522C371.517 208.728 371.298 209.386 371.517 209.606C371.736 209.825 372.941 209.935 374.914 209.825L377.653 209.715L377.433 207.96Z" fill="#FEBC12"/>
<path d="M398.798 195.895C399.017 195.566 399.674 195.347 400.66 195.347C401.646 195.347 402.194 195.566 402.413 195.895C402.632 196.224 402.742 200.392 402.632 208.399C402.523 215.638 402.304 219.806 401.975 220.793C401.646 221.561 401.098 221.89 400.331 221.89C399.784 221.89 399.455 221.671 399.126 221.123C398.907 220.684 398.688 216.406 398.579 208.399C398.469 200.392 398.579 196.224 398.798 195.895Z" fill="#FEBC12"/>
<path d="M459.603 195.347C460.151 194.798 460.589 194.469 461.137 194.469C461.795 194.469 462.233 194.798 462.452 195.347C462.781 196.224 462.89 200.173 462.89 207.083C462.89 213.883 462.781 217.832 462.452 218.929C462.233 219.806 461.685 220.464 460.918 221.013C460.808 221.123 460.589 221.232 460.37 221.342C459.494 221.781 458.069 222 456.207 222C454.235 222 452.92 221.781 452.263 221.342C451.496 220.793 450.619 220.135 449.743 219.258C448.866 218.38 448.428 217.832 448.428 217.613C448.428 217.393 448.319 217.064 447.99 216.625C447.661 216.187 447.442 215.638 447.113 215.09C446.894 214.432 446.785 213.774 446.785 213.116C446.894 212.348 447.004 211.909 447.113 211.69C447.333 211.58 447.771 211.47 448.647 211.361C449.414 211.251 449.962 211.361 450.291 211.47C450.619 211.58 450.948 212.019 451.277 212.677C451.825 213.664 452.263 214.432 452.482 215.2C452.591 215.748 453.139 216.406 454.016 217.064C454.892 217.722 455.659 218.051 456.317 218.051C456.755 218.051 457.303 217.722 457.96 216.955C458.398 216.406 458.727 215.748 458.836 214.871C458.946 213.993 458.946 211.032 458.946 205.986C458.946 201.489 458.946 198.747 459.056 197.65C459.056 196.553 459.275 195.786 459.603 195.347Z" fill="#2B3990"/>
<path d="M487.103 197.102C487.651 196.334 488.089 195.786 488.308 195.566C488.637 195.347 489.185 195.237 489.951 195.237C490.937 195.237 491.704 195.347 492.143 195.676C492.581 196.005 492.8 196.444 492.8 197.211C492.8 197.541 492.91 197.87 493.129 198.308C493.348 198.747 493.786 199.734 494.334 201.27C494.991 202.805 495.649 204.889 496.415 207.302C497.073 209.496 497.73 211.47 498.388 213.116C499.045 214.761 499.483 215.967 499.812 216.626C500.14 217.284 500.36 217.832 500.579 218.38C500.798 218.929 500.798 219.258 500.798 219.477C500.798 219.697 500.579 220.026 500.36 220.464C499.921 221.232 499.264 221.671 498.388 221.671C497.84 221.781 497.401 221.671 497.182 221.342C496.963 221.123 496.525 220.245 495.868 218.929C494.991 217.064 494.553 215.858 494.553 215.309C494.553 214.542 494.115 214.103 493.348 213.883C492.581 213.664 490.828 213.664 488.198 213.774C486.117 213.883 484.583 213.993 483.707 214.103C482.83 214.322 482.173 214.542 481.625 215.09C481.077 215.529 480.529 216.406 479.872 217.503C478.776 219.477 477.79 220.793 477.023 221.342C476.256 221.89 475.49 221.89 474.832 221.232C474.284 220.684 474.175 220.026 474.503 219.039C474.832 218.161 475.599 216.516 476.914 214.212L478.776 210.922C479.105 210.264 479.872 208.838 481.187 206.754C482.392 204.67 483.268 203.025 483.926 201.818C484.254 201.16 484.583 200.612 485.021 200.173C485.35 199.734 485.679 199.515 485.788 199.295C486.007 199.186 486.117 198.966 486.117 198.857C486.007 198.966 486.336 198.308 487.103 197.102ZM491.157 207.96C491.047 207.302 490.937 206.535 490.609 205.657C490.28 204.78 490.061 204.012 489.732 203.463C489.404 202.915 489.294 202.586 489.185 202.586C489.075 202.586 488.746 202.805 488.418 203.354C487.979 203.792 487.651 204.341 487.432 204.78L485.898 207.522C485.24 208.728 485.021 209.386 485.24 209.606C485.459 209.825 486.665 209.935 488.637 209.825L491.376 209.715L491.157 207.96Z" fill="#2B3990"/>
<path d="M516.794 195.018C519.313 194.36 521.724 194.25 523.915 194.798C526.106 195.237 527.859 196.115 528.955 197.431C530.269 198.966 531.146 200.612 531.475 202.367C531.803 204.122 531.475 205.657 530.598 206.973C529.722 208.18 528.626 209.167 527.311 209.715C525.997 210.264 524.024 210.593 521.395 210.703L516.903 210.922L516.794 215.638C516.684 218.819 516.465 220.574 516.136 220.903C515.808 221.342 515.15 221.452 514.164 221.342L512.63 221.232L512.521 209.825C512.411 202.257 512.411 198.089 512.63 197.431C512.74 196.882 513.178 196.444 513.835 196.005C514.383 195.786 515.369 195.457 516.794 195.018ZM523.696 199.405C522.491 198.857 521.614 198.528 520.957 198.418C520.299 198.308 519.533 198.528 518.327 198.857C517.341 199.186 516.794 199.625 516.574 200.283C516.355 200.941 516.246 202.147 516.136 204.012C516.136 205.876 516.246 206.864 516.465 206.973C516.903 207.193 518.437 207.083 520.957 206.754C523.586 206.315 525.12 205.986 525.558 205.657C526.764 204.78 527.092 203.683 526.763 202.476C526.435 201.16 525.339 200.173 523.696 199.405Z" fill="#2B3990"/>
<path d="M555.797 197.102C556.345 196.334 556.783 195.786 557.002 195.566C557.331 195.347 557.878 195.237 558.645 195.237C559.631 195.237 560.398 195.347 560.837 195.676C561.275 196.005 561.494 196.444 561.494 197.211C561.494 197.541 561.604 197.87 561.823 198.308C562.042 198.747 562.48 199.734 563.028 201.27C563.685 202.805 564.343 204.889 565.109 207.302C565.767 209.496 566.424 211.47 567.081 213.116C567.739 214.761 568.177 215.967 568.506 216.626C568.835 217.284 569.054 217.832 569.273 218.38C569.492 218.929 569.492 219.258 569.492 219.477C569.492 219.697 569.273 220.026 569.054 220.464C568.615 221.232 567.958 221.671 567.081 221.671C566.534 221.781 566.095 221.671 565.876 221.342C565.657 221.123 565.219 220.245 564.562 218.929C563.685 217.064 563.247 215.858 563.247 215.309C563.247 214.542 562.809 214.103 562.042 213.883C561.275 213.664 559.522 213.664 556.892 213.774C554.811 213.883 553.277 213.993 552.401 214.103C551.524 214.322 550.867 214.542 550.319 215.09C549.771 215.529 549.223 216.406 548.566 217.503C547.47 219.477 546.484 220.793 545.717 221.342C544.95 221.89 544.184 221.89 543.526 221.232C542.978 220.684 542.869 220.026 543.197 219.039C543.526 218.161 544.293 216.516 545.608 214.212L547.47 210.922C547.799 210.264 548.566 208.838 549.881 206.754C551.086 204.67 551.962 203.025 552.62 201.818C552.948 201.16 553.277 200.612 553.715 200.173C554.044 199.734 554.373 199.515 554.482 199.295C554.701 199.186 554.811 198.966 554.811 198.857C554.701 198.966 555.03 198.308 555.797 197.102ZM559.851 207.96C559.741 207.302 559.631 206.535 559.303 205.657C558.974 204.78 558.755 204.012 558.426 203.463C558.098 202.915 557.988 202.586 557.878 202.586C557.769 202.586 557.44 202.805 557.112 203.354C556.673 203.792 556.345 204.341 556.126 204.78L554.592 207.522C553.934 208.728 553.715 209.386 553.934 209.606C554.153 209.825 555.359 209.935 557.331 209.825L560.07 209.715L559.851 207.96Z" fill="#2B3990"/>
<path d="M591.732 215.748C591.732 215.529 591.404 215.09 590.856 214.432C590.308 213.774 589.979 213.335 589.979 213.006C589.979 212.677 589.651 212.019 589.103 211.251C588.555 210.483 588.227 209.935 588.227 209.606C588.227 209.167 587.898 208.399 587.131 207.302C586.364 206.206 585.926 205.767 585.707 205.876C585.378 206.096 585.268 208.29 585.268 212.787C585.268 214.761 585.268 216.296 585.268 217.393C585.268 218.49 585.159 219.368 584.94 220.026C584.83 220.684 584.611 221.123 584.282 221.342C584.063 221.561 583.625 221.671 583.187 221.671C582.31 221.671 581.653 221.452 581.434 220.903C581.105 220.245 580.886 217.503 580.996 212.787C580.996 212.677 580.996 212.677 580.996 212.677C580.996 206.425 581.105 202.038 581.324 199.515C581.543 196.992 581.872 195.566 582.42 195.127C583.296 194.469 584.173 194.36 584.94 194.908C585.707 195.457 586.474 196.663 587.46 198.528L589.213 202.257C589.76 203.354 589.979 204.012 589.979 204.451C589.979 204.78 590.308 205.328 590.856 206.096C591.404 206.973 591.732 207.522 591.732 207.851C591.732 208.29 592.39 209.167 593.485 210.374C594.581 211.58 595.348 212.128 595.677 212.019C595.896 211.909 596.115 211.141 596.115 209.606C596.115 208.07 596.115 206.425 596.005 204.56C595.896 202.696 595.896 200.941 596.005 199.076C596.115 197.321 596.334 196.115 596.663 195.566C597.101 194.908 597.539 194.579 598.087 194.579C598.635 194.579 599.073 194.798 599.621 195.237C599.949 195.566 600.169 196.553 600.278 198.199C600.388 199.844 600.497 203.354 600.497 208.619L600.607 221.342L598.963 221.452C598.306 221.561 597.649 221.452 597.21 221.123C596.772 220.903 595.896 220.135 594.581 218.929C592.609 217.174 591.732 216.077 591.732 215.748Z" fill="#2B3990"/>
</svg>
